<svg xmlns="http://www.w3.org/2000/svg" version="1.1" xmlns:xlink="http://www.w3.org/1999/xlink" xmlns:svgjs="http://svgjs.dev/svgjs" width="1500" height="1500" viewBox="0 0 1500 1500"><rect width="1500" height="1500" fill="#003366"></rect><g transform="matrix(0.6666666666666666,0,0,0.6666666666666666,248.4427725856698,189.33333333333348)"><svg viewBox="0 0 321 360" data-background-color="#003366" preserveAspectRatio="xMidYMid meet" height="1682" width="1500" xmlns="http://www.w3.org/2000/svg" xmlns:xlink="http://www.w3.org/1999/xlink"><g id="tight-bounds" transform="matrix(1,0,0,1,0.49986999999998716,0)"><svg viewBox="0 0 320 360" height="360" width="320"><g><svg></svg></g><g><svg viewBox="0 0 320 360" height="360" width="320"><g><path transform="translate(-40.79862,-27.54029) scale(4.05392,4.05392)" d="M89 41.809l-4.923-4.923v-6.962l-13.274-13.274h-6.962l-4.923-4.923h-18.772l-4.923 4.923h-6.962l-13.274 13.274v6.962l-4.923 4.923v18.773l4.923 4.923v6.962l13.275 13.273h6.962l4.923 4.923h18.773l4.923-4.923h6.962l13.274-13.274v-6.962l4.921-4.923zM70.345 17.755l12.627 12.627v5.399l-18.026-18.026zM82.972 37.344v27.703l-19.588 19.588h-27.703l-19.589-19.589v-27.702l19.589-19.589h27.703zM40.604 12.832h17.857l3.818 3.818h-25.493zM16.092 30.382l12.627-12.627h5.399l-18.026 18.026zM11.17 60.124v-17.858l3.818-3.818v25.492zM28.719 84.635l-12.627-12.627v-5.399l18.026 18.026zM58.461 89.558h-17.857l-3.818-3.818h25.492zM82.972 72.008l-12.627 12.627h-5.399l18.026-18.026zM87.895 60.124l-3.818 3.818v-25.493l3.818 3.818z" fill="#00e5f3" fill-rule="nonzero" stroke="none" stroke-width="1" stroke-linecap="butt" stroke-linejoin="miter" stroke-miterlimit="10" stroke-dasharray="" stroke-dashoffset="0" font-family="none" font-weight="none" font-size="none" text-anchor="none" style="mix-blend-mode: normal" data-fill-palette-color="tertiary"></path></g><g transform="matrix(1,0,0,1,56,110.69061888308936)"><svg viewBox="0 0 208 138.6187622338213" height="138.6187622338213" width="208"><g><svg viewBox="0 0 209.03999999999996 139.31185604499038" height="138.6187622338213" width="208"><g></g><g transform="matrix(1,0,0,1,0.5199999999999818,105.43358452670087)"><svg viewBox="0 0 208 33.878271518289495" height="33.878271518289495" width="208"><g id="textblocktransform"><svg viewBox="0 0 208 33.878271518289495" height="33.878271518289495" width="208" id="textblock"><g><svg viewBox="0 0 208 20.973411446597567" height="20.973411446597567" width="208"><g transform="matrix(1,0,0,1,0,0)"><svg width="208" viewBox="0 -43.04 433.37 43.7" height="20.973411446597567" data-palette-color="#c1d4e0"><path d="M0-2.05L0-2.05Q0-2.95 0.42-3.63 0.83-4.3 1.76-4.3L1.76-4.3 5.15-4.3 21.31-40.8Q21.68-41.65 22.41-42.35 23.14-43.04 24.32-43.04L24.32-43.04Q25.54-43.04 26.18-42.32 26.83-41.6 27.2-40.7L27.2-40.7 41.87-4.3 46.22-4.3Q47.14-4.3 47.55-3.63 47.95-2.95 47.95-2.05L47.95-2.05Q47.95-1.25 47.49-0.62 47.02 0 46.17 0L46.17 0 30.42 0Q29.57 0 29.09-0.62 28.61-1.25 28.61-2.05L28.61-2.05Q28.61-2.95 29.03-3.63 29.44-4.3 30.37-4.3L30.37-4.3 35.72-4.3 32.1-13.84 14.4-13.84 10.57-4.3 15.11-4.3Q16.04-4.3 16.46-3.63 16.87-2.95 16.87-2.05L16.87-2.05Q16.87-1.25 16.39-0.62 15.92 0 15.06 0L15.06 0 1.81 0Q0.95 0 0.48-0.62 0-1.25 0-2.05L0-2.05ZM23.56-36.6L15.92-17.6 30.71-17.6 23.56-36.6ZM57.96-34.84L57.96-34.84Q56.42-34.84 55.33-35.93 54.25-37.01 54.25-38.55L54.25-38.55Q54.25-40.09 55.33-41.17 56.42-42.26 57.96-42.26L57.96-42.26Q59.49-42.26 60.57-41.17 61.64-40.09 61.64-38.55L61.64-38.55Q61.64-37.01 60.57-35.93 59.49-34.84 57.96-34.84L57.96-34.84ZM50.44-2.03L50.44-2.03Q50.44-2.93 50.89-3.58 51.34-4.22 52.29-4.22L52.29-4.22 55.64-4.22 55.64-24 52.15-23.05Q52.1-23.02 52.01-23.01 51.93-23 51.8-23L51.8-23Q51.07-23 50.44-23.6 49.8-24.19 49.8-24.95L49.8-24.95Q49.8-25.73 50.16-26.28 50.51-26.83 51.19-27L51.19-27 59.01-28.96Q59.08-28.98 59.18-28.99 59.27-29 59.4-29L59.4-29Q59.93-29 60.29-28.7 60.64-28.39 60.64-27.86L60.64-27.86 60.64-4.22 64.4-4.22Q65.33-4.22 65.74-3.55 66.16-2.88 66.16-1.98L66.16-1.98Q66.16-1.17 65.68-0.59 65.21 0 64.35 0L64.35 0 52.44 0Q51.41 0 50.93-0.55 50.44-1.1 50.44-2.03L50.44-2.03ZM71.92-17.46L71.92-17.46Q71.92-18.46 72.65-19.2 73.38-19.95 74.41-19.95L74.41-19.95 92.52-19.95Q93.55-19.95 94.28-19.2 95.01-18.46 95.01-17.46L95.01-17.46Q95.01-16.41 94.29-15.67 93.57-14.94 92.52-14.94L92.52-14.94 74.41-14.94Q73.36-14.94 72.64-15.67 71.92-16.41 71.92-17.46L71.92-17.46ZM101.53-2.05L101.53-2.05Q101.53-2.95 101.93-3.63 102.34-4.3 103.26-4.3L103.26-4.3 109.22-4.3 109.22-37.55 103.26-37.55Q102.34-37.55 101.93-38.22 101.53-38.89 101.53-39.79L101.53-39.79Q101.53-40.6 101.99-41.22 102.46-41.85 103.31-41.85L103.31-41.85 120.82-41.85Q121.67-41.85 122.15-41.22 122.62-40.6 122.62-39.79L122.62-39.79Q122.62-38.89 122.21-38.22 121.79-37.55 120.87-37.55L120.87-37.55 114.93-37.55 114.93-4.3 120.87-4.3Q121.79-4.3 122.21-3.63 122.62-2.95 122.62-2.05L122.62-2.05Q122.62-1.25 122.15-0.62 121.67 0 120.82 0L120.82 0 103.31 0Q102.46 0 101.99-0.62 101.53-1.25 101.53-2.05L101.53-2.05ZM145.55-24.85L145.55-24.85Q142.28-24.85 139.33-22.69 136.39-20.53 136.39-17.26L136.39-17.26 136.39-4.3 139.96-4.3Q140.88-4.3 141.29-3.63 141.69-2.95 141.69-2.05L141.69-2.05Q141.69-1.25 141.23-0.62 140.76 0 139.91 0L139.91 0 128.51 0Q127.48 0 126.99-0.59 126.5-1.17 126.5-2.1L126.5-2.1Q126.5-3 126.96-3.65 127.41-4.3 128.36-4.3L128.36-4.3 131.39-4.3 131.39-23.9 127.9-23.05Q127.85-23.02 127.76-23.01 127.68-23 127.55-23L127.55-23Q126.82-23 126.19-23.6 125.55-24.19 125.55-24.95L125.55-24.95Q125.55-25.78 125.91-26.28 126.26-26.78 126.94-27L126.94-27 133.75-28.96Q133.85-28.96 133.88-28.98 133.9-29 134-29L134-29 134.15-29Q134.66-29 135.02-28.7 135.39-28.39 135.39-27.86L135.39-27.86 135.9-23.24Q137.15-25.49 140.09-27.25 143.03-29 146.45-29L146.45-29Q151.02-29 153.7-26.32 156.39-23.63 156.39-19.04L156.39-19.04 156.39-4.3 159.44-4.3Q160.37-4.3 160.78-3.63 161.2-2.95 161.2-2.05L161.2-2.05Q161.2-1.25 160.72-0.62 160.24 0 159.39 0L159.39 0 147.5 0Q146.47 0 145.99-0.59 145.5-1.17 145.5-2.1L145.5-2.1Q145.5-3 145.95-3.65 146.4-4.3 147.35-4.3L147.35-4.3 151.45-4.3 151.45-18.6Q151.45-21.51 149.98-23.18 148.5-24.85 145.55-24.85L145.55-24.85ZM175.96-3.27L175.96-3.27Q178.31-3.27 178.99-4.59 179.68-5.91 181.07-5.91L181.07-5.91Q181.82-5.91 182.32-5.36 182.82-4.81 182.82-4.05L182.82-4.05Q182.82-1.88 180.21-0.61 177.6 0.66 175.13 0.66L175.13 0.66Q172.28 0.66 170.13-1.35 167.98-3.37 167.98-6.05L167.98-6.05 167.98-23.34 164.32-23.34Q163.29-23.34 162.8-23.93 162.32-24.51 162.32-25.44L162.32-25.44Q162.32-26.34 162.77-27 163.22-27.66 164.17-27.66L164.17-27.66 167.98-27.66Q167.98-29.88 168.37-33.59 168.76-37.3 170.86-37.3L170.86-37.3Q171.47-37.3 171.92-37.16 172.38-37.01 172.81-36.69L172.81-36.69 172.81-36.21Q172.81-35.89 172.84-35.49 172.86-35.08 172.86-34.77L172.86-34.77 172.86-27.66 179.26-27.66Q180.19-27.66 180.6-26.98 181.02-26.29 181.02-25.39L181.02-25.39Q181.02-24.58 180.54-23.96 180.07-23.34 179.21-23.34L179.21-23.34 172.86-23.34 172.86-6.81Q172.86-4.91 173.74-4.09 174.62-3.27 175.96-3.27L175.96-3.27ZM209.14-14.16L190.63-13.65Q190.63-8.86 193.63-6.36 196.62-3.86 200.99-3.86L200.99-3.86Q204.09-3.86 205.86-5.02 207.63-6.18 209.24-7.67L209.24-7.67Q209.6-7.98 210.02-8.14 210.43-8.3 210.85-8.3L210.85-8.3Q211.83-8.3 212.51-7.7 213.19-7.1 213.19-6.1L213.19-6.1Q213.19-2.98 208.66-1.18 204.14 0.61 200.79 0.61L200.79 0.61Q194.1 0.61 189.77-3.36 185.43-7.32 185.43-14.04L185.43-14.04Q185.43-20.68 189.41-24.84 193.39-29 200.2-29L200.2-29Q205.09-29 209.12-25.62 213.14-22.24 213.14-16.89L213.14-16.89Q213.14-15.06 212.01-14.7 210.87-14.33 209.14-14.16L209.14-14.16ZM207.02-18.46L207.02-18.46Q207.02-21.95 204.88-23.4 202.74-24.85 200.2-24.85L200.2-24.85Q195.91-24.85 193.38-22.73 190.85-20.61 190.54-17.09L190.54-17.09 205.21-17.41Q205.89-17.43 206.45-17.66 207.02-17.9 207.02-18.46L207.02-18.46ZM237.14-21.85L237.14-24.56Q234.21-24.56 231.92-23.27 229.62-21.97 228.42-20.19L228.42-20.19 228.42-4.3 234.97-4.3Q235.9-4.3 236.31-3.63 236.73-2.95 236.73-2.05L236.73-2.05Q236.73-1.25 236.25-0.62 235.77 0 234.92 0L234.92 0 218.78 0Q217.76 0 217.27-0.59 216.78-1.17 216.78-2.1L216.78-2.1Q216.78-3 217.23-3.65 217.68-4.3 218.63-4.3L218.63-4.3 223.42-4.3 223.42-23.9 219.93-23.05Q219.88-23.02 219.79-23.01 219.71-23 219.59-23L219.59-23Q218.85-23 218.22-23.6 217.59-24.19 217.59-24.95L217.59-24.95Q217.59-25.78 217.94-26.28 218.29-26.78 218.98-27L218.98-27 225.79-28.96Q225.89-28.96 225.91-28.98 225.93-29 226.03-29L226.03-29 226.18-29Q226.69-29 227.06-28.7 227.42-28.39 227.42-27.86L227.42-27.86 227.94-23.24Q229.62-25.81 232.37-27.4 235.11-29 239.39-29L239.39-29Q240.19-29 240.82-28.53 241.44-28.05 241.44-27.2L241.44-27.2 241.44-22Q241.44-20.97 240.85-20.48 240.27-20 239.34-20L239.34-20Q238.43-20 237.79-20.45 237.14-20.9 237.14-21.85L237.14-21.85ZM257.6-25.61L257.6-25.61Q257.6-24.71 257.19-24.02 256.79-23.34 255.86-23.34L255.86-23.34 253.06-23.34 260.84-6.64 268-23.34 265.65-23.34Q264.73-23.34 264.31-24.02 263.9-24.71 263.9-25.61L263.9-25.61Q263.9-26.42 264.37-27.04 264.85-27.66 265.7-27.66L265.7-27.66 275.4-27.66Q276.44-27.66 276.92-27.08 277.4-26.49 277.4-25.56L277.4-25.56Q277.4-24.66 276.95-24 276.49-23.34 275.54-23.34L275.54-23.34 272.34-23.34 263.16-2.86Q262.63-1.83 262-0.92 261.38 0 260.21 0L260.21 0Q259.16 0 258.54-0.95 257.91-1.9 257.35-3.05L257.35-3.05 247.25-23.34 244.36-23.34Q243.44-23.34 242.97-24 242.51-24.66 242.51-25.56L242.51-25.56Q242.51-26.49 243-27.08 243.49-27.66 244.51-27.66L244.51-27.66 255.81-27.66Q256.67-27.66 257.13-27.04 257.6-26.42 257.6-25.61L257.6-25.61ZM287.16-34.84L287.16-34.84Q285.62-34.84 284.54-35.93 283.45-37.01 283.45-38.55L283.45-38.55Q283.45-40.09 284.54-41.17 285.62-42.26 287.16-42.26L287.16-42.26Q288.7-42.26 289.77-41.17 290.85-40.09 290.85-38.55L290.85-38.55Q290.85-37.01 289.77-35.93 288.7-34.84 287.16-34.84L287.16-34.84ZM279.64-2.03L279.64-2.03Q279.64-2.93 280.09-3.58 280.54-4.22 281.5-4.22L281.5-4.22 284.84-4.22 284.84-24 281.35-23.05Q281.3-23.02 281.22-23.01 281.13-23 281.01-23L281.01-23Q280.28-23 279.64-23.6 279.01-24.19 279.01-24.95L279.01-24.95Q279.01-25.73 279.36-26.28 279.71-26.83 280.4-27L280.4-27 288.21-28.96Q288.28-28.98 288.38-28.99 288.48-29 288.6-29L288.6-29Q289.14-29 289.49-28.7 289.85-28.39 289.85-27.86L289.85-27.86 289.85-4.22 293.61-4.22Q294.53-4.22 294.95-3.55 295.36-2.88 295.36-1.98L295.36-1.98Q295.36-1.17 294.89-0.59 294.41 0 293.56 0L293.56 0 281.64 0Q280.62 0 280.13-0.55 279.64-1.1 279.64-2.03L279.64-2.03ZM321.8-14.16L303.3-13.65Q303.3-8.86 306.29-6.36 309.28-3.86 313.65-3.86L313.65-3.86Q316.75-3.86 318.52-5.02 320.29-6.18 321.9-7.67L321.9-7.67Q322.27-7.98 322.68-8.14 323.1-8.3 323.51-8.3L323.51-8.3Q324.49-8.3 325.17-7.7 325.85-7.1 325.85-6.1L325.85-6.1Q325.85-2.98 321.33-1.18 316.8 0.61 313.45 0.61L313.45 0.61Q306.76 0.61 302.43-3.36 298.1-7.32 298.1-14.04L298.1-14.04Q298.1-20.68 302.07-24.84 306.05-29 312.87-29L312.87-29Q317.75-29 321.78-25.62 325.81-22.24 325.81-16.89L325.81-16.89Q325.81-15.06 324.67-14.7 323.53-14.33 321.8-14.16L321.8-14.16ZM319.68-18.46L319.68-18.46Q319.68-21.95 317.54-23.4 315.4-24.85 312.87-24.85L312.87-24.85Q308.57-24.85 306.04-22.73 303.52-20.61 303.2-17.09L303.2-17.09 317.87-17.41Q318.55-17.43 319.12-17.66 319.68-17.9 319.68-18.46L319.68-18.46ZM359.13-25.61L359.13-25.61Q359.13-24.71 358.71-24.02 358.3-23.34 357.37-23.34L357.37-23.34 353.41-23.34 360.86-7.3 368.16-23.34 365.72-23.34Q364.79-23.34 364.38-24.02 363.96-24.71 363.96-25.61L363.96-25.61Q363.96-26.42 364.44-27.04 364.91-27.66 365.77-27.66L365.77-27.66 374.22-27.66Q375.24-27.66 375.73-27.08 376.22-26.49 376.22-25.56L376.22-25.56Q376.22-24.66 375.77-24 375.31-23.34 374.36-23.34L374.36-23.34 371.87-23.34 362.77-2.86Q362.35-1.93 361.81-0.94 361.28 0.05 360.37 0.05L360.37 0.05Q359.54 0.05 358.87-1.09 358.2-2.22 357.81-3.05L357.81-3.05 352.07-14.84 346.73-2.86Q346.12-1.49 345.46-0.79 344.8-0.1 344.11-0.1L344.11-0.1Q343.43-0.1 342.73-0.84 342.04-1.59 341.31-3.05L341.31-3.05 331.37-23.34 329.32-23.34Q328.37-23.34 327.91-24 327.46-24.66 327.46-25.56L327.46-25.56Q327.46-26.49 327.95-27.08 328.44-27.66 329.46-27.66L329.46-27.66 338.77-27.66Q339.62-27.66 340.1-27.04 340.57-26.42 340.57-25.61L340.57-25.61Q340.57-24.71 340.16-24.02 339.74-23.34 338.82-23.34L338.82-23.34 336.86-23.34 344.82-7.3 350.07-18.9 347.92-23.34 346.36-23.34Q345.41-23.34 344.97-24 344.53-24.66 344.53-25.56L344.53-25.56Q344.53-26.49 345-27.08 345.48-27.66 346.51-27.66L346.51-27.66 357.32-27.66Q358.18-27.66 358.65-27.04 359.13-26.42 359.13-25.61L359.13-25.61ZM401.07-14.16L382.56-13.65Q382.56-8.86 385.55-6.36 388.54-3.86 392.91-3.86L392.91-3.86Q396.01-3.86 397.78-5.02 399.55-6.18 401.17-7.67L401.17-7.67Q401.53-7.98 401.95-8.14 402.36-8.3 402.78-8.3L402.78-8.3Q403.75-8.3 404.44-7.7 405.12-7.1 405.12-6.1L405.12-6.1Q405.12-2.98 400.59-1.18 396.06 0.61 392.72 0.61L392.72 0.61Q386.03 0.61 381.7-3.36 377.36-7.32 377.36-14.04L377.36-14.04Q377.36-20.68 381.34-24.84 385.32-29 392.13-29L392.13-29Q397.02-29 401.04-25.62 405.07-22.24 405.07-16.89L405.07-16.89Q405.07-15.06 403.94-14.7 402.8-14.33 401.07-14.16L401.07-14.16ZM398.94-18.46L398.94-18.46Q398.94-21.95 396.81-23.4 394.67-24.85 392.13-24.85L392.13-24.85Q387.84-24.85 385.31-22.73 382.78-20.61 382.47-17.09L382.47-17.09 397.14-17.41Q397.82-17.43 398.38-17.66 398.94-17.9 398.94-18.46L398.94-18.46ZM429.07-21.85L429.07-24.56Q426.14-24.56 423.84-23.27 421.55-21.97 420.35-20.19L420.35-20.19 420.35-4.3 426.9-4.3Q427.82-4.3 428.24-3.63 428.65-2.95 428.65-2.05L428.65-2.05Q428.65-1.25 428.18-0.62 427.7 0 426.85 0L426.85 0 410.71 0Q409.68 0 409.2-0.59 408.71-1.17 408.71-2.1L408.71-2.1Q408.71-3 409.16-3.65 409.61-4.3 410.56-4.3L410.56-4.3 415.35-4.3 415.35-23.9 411.86-23.05Q411.81-23.02 411.72-23.01 411.64-23 411.52-23L411.52-23Q410.78-23 410.15-23.6 409.51-24.19 409.51-24.95L409.51-24.95Q409.51-25.78 409.87-26.28 410.22-26.78 410.91-27L410.91-27 417.72-28.96Q417.81-28.96 417.84-28.98 417.86-29 417.96-29L417.96-29 418.11-29Q418.62-29 418.99-28.7 419.35-28.39 419.35-27.86L419.35-27.86 419.86-23.24Q421.55-25.81 424.3-27.4 427.04-29 431.32-29L431.32-29Q432.12-29 432.74-28.53 433.37-28.05 433.37-27.2L433.37-27.2 433.37-22Q433.37-20.97 432.78-20.48 432.19-20 431.27-20L431.27-20Q430.36-20 429.72-20.45 429.07-20.9 429.07-21.85L429.07-21.85Z" opacity="1" transform="matrix(1,0,0,1,0,0)" fill="#c1d4e0" class="wordmark-text-0" data-fill-palette-color="primary" id="text-0"></path></svg></g></svg></g><g transform="matrix(1,0,0,1,0,25.924730527264533)"><svg viewBox="0 0 208 7.953540991024964" height="7.953540991024964" width="208"><g transform="matrix(1,0,0,1,0,0)"><svg width="208" viewBox="-0.9 -37.5 1294.8200000000002 49.51" height="7.953540991024964" data-palette-color="url(#4ce5d238-ec63-4569-a425-66c52e8051c2)"></svg></g></svg></g></svg></g></svg></g><g transform="matrix(1,0,0,1,49.7002287617239,0)"><svg viewBox="0 0 109.63954247655217 93.63954247655217" height="93.63954247655217" width="109.63954247655217"><g><svg xmlns="http://www.w3.org/2000/svg" xmlns:xlink="http://www.w3.org/1999/xlink" version="1.1" x="8" y="0" viewBox="1 1 66 66" style="enable-background:new 0 0 68 68;" xml:space="preserve" height="93.63954247655217" width="93.63954247655217" class="icon-icon-0" data-fill-palette-color="accent" id="icon-0"><g fill="#33efff" data-fill-palette-color="accent"><g fill="#33efff" data-fill-palette-color="accent"><path class="" d="M48.5 31.1C49 30.9 49.3 30.6 49.5 30.3 50.6 28.9 50.1 26.9 50 26.6 47.4 16.6 41.5 12.8 32.9 12.9 30.6 12.9 23.5 12.9 18.7 22.1 14.2 30.8 22.9 44.3 24.3 46.4V54C24.3 54.6 24.7 55 25.3 55H40.4C41 55 41.4 54.6 41.4 54V48.7C42.7 49.6 43.9 49.8 44.6 49.8 45.8 49.8 47 49.3 47.8 48.5 48.5 47.8 48.8 46.9 48.8 45.9L48.3 39.7H51.9C52.3 39.7 52.6 39.5 52.8 39.2S53 38.5 52.8 38.2zM26.5 53.1V50.9H39.6V53.1zM47.3 37.8C47 37.8 46.8 37.9 46.6 38.1S46.3 38.6 46.3 38.9L46.9 46.1C46.9 46.5 46.8 46.9 46.5 47.2 46.1 47.6 45.4 47.9 44.8 47.9 43.6 47.9 42.4 47.1 41.4 45.7 41.2 45.3 40.7 45.2 40.3 45.3S39.6 45.8 39.6 46.3V48.9H26.5V46.2C26.5 46 26.4 45.8 26.3 45.6 26.2 45.5 16.4 31.3 20.6 23.1 24.4 15.8 29.5 14.9 33 14.9 40.5 14.9 45.7 17.8 48.2 27.1 48.3 27.5 48.4 28.6 48 29 47.9 29.1 47.7 29.3 47 29.3 46.7 29.3 46.3 29.5 46.1 29.8S45.9 30.5 46.1 30.8L50.2 37.7z" fill="#33efff" data-fill-palette-color="accent"></path></g><g fill="#33efff" data-fill-palette-color="accent"><path class="" d="M67 34C67 31.3 64.9 29.1 62.3 28.8 61.6 24.8 60 21 57.6 17.6 59.4 15.4 59.2 12.4 57.3 10.6 55.4 8.7 52.4 8.5 50.3 10.3 47 8.1 43.1 6.5 39.2 5.8 38.9 3.1 36.7 1 34 1S29.1 3.1 28.8 5.8C24.8 6.5 21 8.1 17.7 10.4 15.5 8.6 12.5 8.8 10.7 10.7 8.9 12.5 8.6 15.6 10.4 17.7 8.1 21 6.5 24.8 5.7 28.8 3.1 29.1 1 31.3 1 34S3.1 38.9 5.7 39.2C6.4 43.2 8 47.1 10.3 50.4 8.6 52.4 8.7 55.5 10.6 57.4 12.4 59.2 15.4 59.5 17.6 57.7 21 60 24.8 61.6 28.8 62.4 29.1 65 31.3 67 34 67S38.9 64.9 39.1 62.3C43.1 61.6 47 60 50.3 57.6 52.5 59.4 55.4 59.1 57.3 57.3 59.2 55.4 59.3 52.4 57.6 50.3 59.9 46.9 61.5 43.1 62.2 39.1 64.9 38.9 67 36.7 67 34M50 50C48.3 51.7 48.1 54.2 49.1 56.1 46.1 58.2 42.6 59.6 39 60.3 38.4 58.2 36.4 56.6 34 56.6S29.7 58.2 29 60.3C25.4 59.6 21.9 58.2 18.9 56.1 20 54.1 19.7 51.6 18 50 16.5 48.5 14 48 11.9 49.1 9.8 46.1 8.4 42.6 7.7 39 9.8 38.3 11.4 36.4 11.4 34.1S9.9 29.8 7.7 29.2C8.4 25.4 9.9 22 12 18.9 14.2 20 16.5 19.5 18.1 18 19.6 16.5 20.1 14.1 19 12 22 9.9 25.5 8.5 29.1 7.8 29.8 9.9 31.7 11.4 34 11.4S38.3 9.9 38.9 7.8C42.5 8.5 46 9.9 49.1 12 48 14.1 48.5 16.5 50 18S53.9 20 56.1 18.9C58.2 21.9 59.6 25.4 60.3 29 58.2 29.7 56.6 31.6 56.6 33.9S58.2 38.2 60.3 38.8C59.6 42.4 58.2 45.9 56.1 48.9 53.9 47.9 51.5 48.4 50 50M65 34C65 35.8 63.6 37.2 61.8 37.2S58.6 35.8 58.6 34 60 30.8 61.8 30.8 65 32.2 65 34M55.9 12.1C57.2 13.4 57.2 15.4 55.9 16.6 54.7 17.8 52.6 17.8 51.4 16.6 50.1 15.3 50.1 13.3 51.4 12.1 52.6 10.8 54.7 10.8 55.9 12.1M34 3C35.8 3 37.2 4.4 37.2 6.2S35.8 9.4 34 9.4 30.8 8 30.8 6.2 32.2 3 34 3M12.1 12.1C13.4 10.8 15.4 10.8 16.6 12.1 17.9 13.4 17.9 15.4 16.6 16.6 15.4 17.8 13.3 17.8 12.1 16.6 10.8 15.4 10.8 13.3 12.1 12.1M3 34C3 32.2 4.4 30.8 6.2 30.8S9.4 32.2 9.4 34 8 37.2 6.2 37.2 3 35.8 3 34M12.1 55.9C10.9 54.7 10.9 52.6 12.1 51.4S15.4 50.1 16.6 51.4C17.8 52.6 17.8 54.7 16.6 55.9S13.3 57.1 12.1 55.9M34 65C32.2 65 30.8 63.6 30.8 61.8S32.2 58.6 34 58.6 37.2 60 37.2 61.8 35.8 65 34 65M55.9 55.9C54.7 57.1 52.6 57.1 51.4 55.9S50.2 52.6 51.4 51.4 54.7 50.1 55.9 51.4C57.2 52.6 57.2 54.7 55.9 55.9" fill="#33efff" data-fill-palette-color="accent"></path></g></g></svg></g></svg></g><g></g></svg></g></svg></g></svg></g><defs></defs><mask id="e75a1537-119e-4f09-9fa4-5ce518ae516f"><g id="SvgjsG4324"><svg viewBox="0 0 320 360" height="360" width="320"><g><svg></svg></g><g><svg viewBox="0 0 320 360" height="360" width="320"><g><path transform="translate(-40.79862,-27.54029) scale(4.05392,4.05392)" d="M89 41.809l-4.923-4.923v-6.962l-13.274-13.274h-6.962l-4.923-4.923h-18.772l-4.923 4.923h-6.962l-13.274 13.274v6.962l-4.923 4.923v18.773l4.923 4.923v6.962l13.275 13.273h6.962l4.923 4.923h18.773l4.923-4.923h6.962l13.274-13.274v-6.962l4.921-4.923zM70.345 17.755l12.627 12.627v5.399l-18.026-18.026zM82.972 37.344v27.703l-19.588 19.588h-27.703l-19.589-19.589v-27.702l19.589-19.589h27.703zM40.604 12.832h17.857l3.818 3.818h-25.493zM16.092 30.382l12.627-12.627h5.399l-18.026 18.026zM11.17 60.124v-17.858l3.818-3.818v25.492zM28.719 84.635l-12.627-12.627v-5.399l18.026 18.026zM58.461 89.558h-17.857l-3.818-3.818h25.492zM82.972 72.008l-12.627 12.627h-5.399l18.026-18.026zM87.895 60.124l-3.818 3.818v-25.493l3.818 3.818z" fill="black" fill-rule="nonzero" stroke="none" stroke-width="1" stroke-linecap="butt" stroke-linejoin="miter" stroke-miterlimit="10" stroke-dasharray="" stroke-dashoffset="0" font-family="none" font-weight="none" font-size="none" text-anchor="none" style="mix-blend-mode: normal"></path></g><g transform="matrix(1,0,0,1,56,110.69061888308936)"><svg viewBox="0 0 208 138.6187622338213" height="138.6187622338213" width="208"><g><svg viewBox="0 0 209.03999999999996 139.31185604499038" height="138.6187622338213" width="208"><g><rect width="209.03999999999996" height="1.8914038888147815" x="0" y="98.59086155721913" fill="white" opacity="1" stroke-width="0" stroke="transparent" fill-opacity="1" class="rect-yte-0" rx="1%" id="SvgjsRect4323" data-palette-color="url(#4ce5d238-ec63-4569-a425-66c52e8051c2)"></rect></g><g transform="matrix(1,0,0,1,0.5199999999999818,105.43358452670087)"><svg viewBox="0 0 208 33.878271518289495" height="33.878271518289495" width="208"><g id="SvgjsG4322"><svg viewBox="0 0 208 33.878271518289495" height="33.878271518289495" width="208" id="SvgjsSvg4321"><g><svg viewBox="0 0 208 20.973411446597567" height="20.973411446597567" width="208"><g transform="matrix(1,0,0,1,0,0)"><svg width="208" viewBox="0 -43.04 433.37 43.7" height="20.973411446597567" data-palette-color="#c1d4e0"><path d="M0-2.05L0-2.05Q0-2.95 0.42-3.63 0.83-4.3 1.76-4.3L1.76-4.3 5.15-4.3 21.31-40.8Q21.68-41.65 22.41-42.35 23.14-43.04 24.32-43.04L24.32-43.04Q25.54-43.04 26.18-42.32 26.83-41.6 27.2-40.7L27.2-40.7 41.87-4.3 46.22-4.3Q47.14-4.3 47.55-3.63 47.95-2.95 47.95-2.05L47.95-2.05Q47.95-1.25 47.49-0.62 47.02 0 46.17 0L46.17 0 30.42 0Q29.57 0 29.09-0.62 28.61-1.25 28.61-2.05L28.61-2.05Q28.61-2.95 29.03-3.63 29.44-4.3 30.37-4.3L30.37-4.3 35.72-4.3 32.1-13.84 14.4-13.84 10.57-4.3 15.11-4.3Q16.04-4.3 16.46-3.63 16.87-2.95 16.87-2.05L16.87-2.05Q16.87-1.25 16.39-0.62 15.92 0 15.06 0L15.06 0 1.81 0Q0.95 0 0.48-0.62 0-1.25 0-2.05L0-2.05ZM23.56-36.6L15.92-17.6 30.71-17.6 23.56-36.6ZM57.96-34.84L57.96-34.84Q56.42-34.84 55.33-35.93 54.25-37.01 54.25-38.55L54.25-38.55Q54.25-40.09 55.33-41.17 56.42-42.26 57.96-42.26L57.96-42.26Q59.49-42.26 60.57-41.17 61.64-40.09 61.64-38.55L61.64-38.55Q61.64-37.01 60.57-35.93 59.49-34.84 57.96-34.84L57.96-34.84ZM50.44-2.03L50.44-2.03Q50.44-2.93 50.89-3.58 51.34-4.22 52.29-4.22L52.29-4.22 55.64-4.22 55.64-24 52.15-23.05Q52.1-23.02 52.01-23.01 51.93-23 51.8-23L51.8-23Q51.07-23 50.44-23.6 49.8-24.19 49.8-24.95L49.8-24.95Q49.8-25.73 50.16-26.28 50.51-26.83 51.19-27L51.19-27 59.01-28.96Q59.08-28.98 59.18-28.99 59.27-29 59.4-29L59.4-29Q59.93-29 60.29-28.7 60.64-28.39 60.64-27.86L60.64-27.86 60.64-4.22 64.4-4.22Q65.33-4.22 65.74-3.55 66.16-2.88 66.16-1.98L66.16-1.98Q66.16-1.17 65.68-0.59 65.21 0 64.35 0L64.35 0 52.44 0Q51.41 0 50.93-0.55 50.44-1.1 50.44-2.03L50.44-2.03ZM71.92-17.46L71.92-17.46Q71.92-18.46 72.65-19.2 73.38-19.95 74.41-19.95L74.41-19.95 92.52-19.95Q93.55-19.95 94.28-19.2 95.01-18.46 95.01-17.46L95.01-17.46Q95.01-16.41 94.29-15.67 93.57-14.94 92.52-14.94L92.52-14.94 74.41-14.94Q73.36-14.94 72.64-15.67 71.92-16.41 71.92-17.46L71.92-17.46ZM101.53-2.05L101.53-2.05Q101.53-2.95 101.93-3.63 102.34-4.3 103.26-4.3L103.26-4.3 109.22-4.3 109.22-37.55 103.26-37.55Q102.34-37.55 101.93-38.22 101.53-38.89 101.53-39.79L101.53-39.79Q101.53-40.6 101.99-41.22 102.46-41.85 103.31-41.85L103.31-41.85 120.82-41.85Q121.67-41.85 122.15-41.22 122.62-40.6 122.62-39.79L122.62-39.79Q122.62-38.89 122.21-38.22 121.79-37.55 120.87-37.55L120.87-37.55 114.93-37.55 114.93-4.3 120.87-4.3Q121.79-4.3 122.21-3.63 122.62-2.95 122.62-2.05L122.62-2.05Q122.62-1.25 122.15-0.62 121.67 0 120.82 0L120.82 0 103.31 0Q102.46 0 101.99-0.62 101.53-1.25 101.53-2.05L101.53-2.05ZM145.55-24.85L145.55-24.85Q142.28-24.85 139.33-22.69 136.39-20.53 136.39-17.26L136.39-17.26 136.39-4.3 139.96-4.3Q140.88-4.3 141.29-3.63 141.69-2.95 141.69-2.05L141.69-2.05Q141.69-1.25 141.23-0.62 140.76 0 139.91 0L139.91 0 128.51 0Q127.48 0 126.99-0.59 126.5-1.17 126.5-2.1L126.5-2.1Q126.5-3 126.96-3.65 127.41-4.3 128.36-4.3L128.36-4.3 131.39-4.3 131.39-23.9 127.9-23.05Q127.85-23.02 127.76-23.01 127.68-23 127.55-23L127.55-23Q126.82-23 126.19-23.6 125.55-24.19 125.55-24.95L125.55-24.95Q125.55-25.78 125.91-26.28 126.26-26.78 126.94-27L126.94-27 133.75-28.96Q133.85-28.96 133.88-28.98 133.9-29 134-29L134-29 134.15-29Q134.66-29 135.02-28.7 135.39-28.39 135.39-27.86L135.39-27.86 135.9-23.24Q137.15-25.49 140.09-27.25 143.03-29 146.45-29L146.45-29Q151.02-29 153.7-26.32 156.39-23.63 156.39-19.04L156.39-19.04 156.39-4.3 159.44-4.3Q160.37-4.3 160.78-3.63 161.2-2.95 161.2-2.05L161.2-2.05Q161.2-1.25 160.72-0.62 160.24 0 159.39 0L159.39 0 147.5 0Q146.47 0 145.99-0.59 145.5-1.17 145.5-2.1L145.5-2.1Q145.5-3 145.95-3.65 146.4-4.3 147.35-4.3L147.35-4.3 151.45-4.3 151.45-18.6Q151.45-21.51 149.98-23.18 148.5-24.85 145.55-24.85L145.55-24.85ZM175.96-3.27L175.96-3.27Q178.31-3.27 178.99-4.59 179.68-5.91 181.07-5.91L181.07-5.91Q181.82-5.91 182.32-5.36 182.82-4.81 182.82-4.05L182.82-4.05Q182.82-1.88 180.21-0.61 177.6 0.66 175.13 0.66L175.13 0.66Q172.28 0.66 170.13-1.35 167.98-3.37 167.98-6.05L167.98-6.05 167.98-23.34 164.32-23.34Q163.29-23.34 162.8-23.93 162.32-24.51 162.32-25.44L162.32-25.44Q162.32-26.34 162.77-27 163.22-27.66 164.17-27.66L164.17-27.66 167.98-27.66Q167.98-29.88 168.37-33.59 168.76-37.3 170.86-37.3L170.86-37.3Q171.47-37.3 171.92-37.16 172.38-37.01 172.81-36.69L172.81-36.69 172.81-36.21Q172.81-35.89 172.84-35.49 172.86-35.08 172.86-34.77L172.86-34.77 172.86-27.66 179.26-27.66Q180.19-27.66 180.6-26.98 181.02-26.29 181.02-25.39L181.02-25.39Q181.02-24.58 180.54-23.96 180.07-23.34 179.21-23.34L179.21-23.34 172.86-23.34 172.86-6.81Q172.86-4.91 173.74-4.09 174.62-3.27 175.96-3.27L175.96-3.27ZM209.14-14.16L190.63-13.65Q190.63-8.86 193.63-6.36 196.62-3.86 200.99-3.86L200.99-3.86Q204.09-3.86 205.86-5.02 207.63-6.18 209.24-7.67L209.24-7.67Q209.6-7.98 210.02-8.14 210.43-8.3 210.85-8.3L210.85-8.3Q211.83-8.3 212.51-7.7 213.19-7.1 213.19-6.1L213.19-6.1Q213.19-2.98 208.66-1.18 204.14 0.61 200.79 0.61L200.79 0.61Q194.1 0.61 189.77-3.36 185.43-7.32 185.43-14.04L185.43-14.04Q185.43-20.68 189.41-24.84 193.39-29 200.2-29L200.2-29Q205.09-29 209.12-25.62 213.14-22.24 213.14-16.89L213.14-16.89Q213.14-15.06 212.01-14.7 210.87-14.33 209.14-14.16L209.14-14.16ZM207.02-18.46L207.02-18.46Q207.02-21.95 204.88-23.4 202.74-24.85 200.2-24.85L200.2-24.85Q195.91-24.85 193.38-22.73 190.85-20.61 190.54-17.09L190.54-17.09 205.21-17.41Q205.89-17.43 206.45-17.66 207.02-17.9 207.02-18.46L207.02-18.46ZM237.14-21.85L237.14-24.56Q234.21-24.56 231.92-23.27 229.62-21.97 228.42-20.19L228.42-20.19 228.42-4.3 234.97-4.3Q235.9-4.3 236.31-3.63 236.73-2.95 236.73-2.05L236.73-2.05Q236.73-1.25 236.25-0.62 235.77 0 234.92 0L234.92 0 218.78 0Q217.76 0 217.27-0.59 216.78-1.17 216.78-2.1L216.78-2.1Q216.78-3 217.23-3.65 217.68-4.3 218.63-4.3L218.63-4.3 223.42-4.3 223.42-23.9 219.93-23.05Q219.88-23.02 219.79-23.01 219.71-23 219.59-23L219.59-23Q218.85-23 218.22-23.6 217.59-24.19 217.59-24.95L217.59-24.95Q217.59-25.78 217.94-26.28 218.29-26.78 218.98-27L218.98-27 225.79-28.96Q225.89-28.96 225.91-28.98 225.93-29 226.03-29L226.03-29 226.18-29Q226.69-29 227.06-28.7 227.42-28.39 227.42-27.86L227.42-27.86 227.94-23.24Q229.62-25.81 232.37-27.4 235.11-29 239.39-29L239.39-29Q240.19-29 240.82-28.53 241.44-28.05 241.44-27.2L241.44-27.2 241.44-22Q241.44-20.97 240.85-20.48 240.27-20 239.34-20L239.34-20Q238.43-20 237.79-20.45 237.14-20.9 237.14-21.85L237.14-21.85ZM257.6-25.61L257.6-25.61Q257.6-24.71 257.19-24.02 256.79-23.34 255.86-23.34L255.86-23.34 253.06-23.34 260.84-6.64 268-23.34 265.65-23.34Q264.73-23.34 264.31-24.02 263.9-24.71 263.9-25.61L263.9-25.61Q263.9-26.42 264.37-27.04 264.85-27.66 265.7-27.66L265.7-27.66 275.4-27.66Q276.44-27.66 276.92-27.08 277.4-26.49 277.4-25.56L277.4-25.56Q277.4-24.66 276.95-24 276.49-23.34 275.54-23.34L275.54-23.34 272.34-23.34 263.16-2.86Q262.63-1.83 262-0.92 261.38 0 260.21 0L260.21 0Q259.16 0 258.54-0.95 257.91-1.9 257.35-3.05L257.35-3.05 247.25-23.34 244.36-23.34Q243.44-23.34 242.97-24 242.51-24.66 242.51-25.56L242.51-25.56Q242.51-26.49 243-27.08 243.49-27.66 244.51-27.66L244.51-27.66 255.81-27.66Q256.67-27.66 257.13-27.04 257.6-26.42 257.6-25.61L257.6-25.61ZM287.16-34.84L287.16-34.84Q285.62-34.84 284.54-35.93 283.45-37.01 283.45-38.55L283.45-38.55Q283.45-40.09 284.54-41.17 285.62-42.26 287.16-42.26L287.16-42.26Q288.7-42.26 289.77-41.17 290.85-40.09 290.85-38.55L290.85-38.55Q290.85-37.01 289.77-35.93 288.7-34.84 287.16-34.84L287.16-34.84ZM279.64-2.03L279.64-2.03Q279.64-2.93 280.09-3.58 280.54-4.22 281.5-4.22L281.5-4.22 284.84-4.22 284.84-24 281.35-23.05Q281.3-23.02 281.22-23.01 281.13-23 281.01-23L281.01-23Q280.28-23 279.64-23.6 279.01-24.19 279.01-24.95L279.01-24.95Q279.01-25.73 279.36-26.28 279.71-26.83 280.4-27L280.4-27 288.21-28.96Q288.28-28.98 288.38-28.99 288.48-29 288.6-29L288.6-29Q289.14-29 289.49-28.7 289.85-28.39 289.85-27.86L289.85-27.86 289.85-4.22 293.61-4.22Q294.53-4.22 294.95-3.55 295.36-2.88 295.36-1.98L295.36-1.98Q295.36-1.17 294.89-0.59 294.41 0 293.56 0L293.56 0 281.64 0Q280.62 0 280.13-0.55 279.64-1.1 279.64-2.03L279.64-2.03ZM321.8-14.16L303.3-13.65Q303.3-8.86 306.29-6.36 309.28-3.86 313.65-3.86L313.65-3.86Q316.75-3.86 318.52-5.02 320.29-6.18 321.9-7.67L321.9-7.67Q322.27-7.98 322.68-8.14 323.1-8.3 323.51-8.3L323.51-8.3Q324.49-8.3 325.17-7.7 325.85-7.1 325.85-6.1L325.85-6.1Q325.85-2.98 321.33-1.18 316.8 0.61 313.45 0.61L313.45 0.61Q306.76 0.61 302.43-3.36 298.1-7.32 298.1-14.04L298.1-14.04Q298.1-20.68 302.07-24.84 306.05-29 312.87-29L312.87-29Q317.75-29 321.78-25.62 325.81-22.24 325.81-16.89L325.81-16.89Q325.81-15.06 324.67-14.7 323.53-14.33 321.8-14.16L321.8-14.16ZM319.68-18.46L319.68-18.46Q319.68-21.95 317.54-23.4 315.4-24.85 312.87-24.85L312.87-24.85Q308.57-24.85 306.04-22.73 303.52-20.61 303.2-17.09L303.2-17.09 317.87-17.41Q318.55-17.43 319.12-17.66 319.68-17.9 319.68-18.46L319.68-18.46ZM359.13-25.61L359.13-25.61Q359.13-24.71 358.71-24.02 358.3-23.34 357.37-23.34L357.37-23.34 353.41-23.34 360.86-7.3 368.16-23.34 365.72-23.34Q364.79-23.34 364.38-24.02 363.96-24.71 363.96-25.61L363.96-25.61Q363.96-26.42 364.44-27.04 364.91-27.66 365.77-27.66L365.77-27.66 374.22-27.66Q375.24-27.66 375.73-27.08 376.22-26.49 376.22-25.56L376.22-25.56Q376.22-24.66 375.77-24 375.31-23.34 374.36-23.34L374.36-23.34 371.87-23.34 362.77-2.86Q362.35-1.93 361.81-0.94 361.28 0.05 360.37 0.05L360.37 0.05Q359.54 0.05 358.87-1.09 358.2-2.22 357.81-3.05L357.81-3.05 352.07-14.84 346.73-2.86Q346.12-1.49 345.46-0.79 344.8-0.1 344.11-0.1L344.11-0.1Q343.43-0.1 342.73-0.84 342.04-1.59 341.31-3.05L341.31-3.05 331.37-23.34 329.32-23.34Q328.37-23.34 327.91-24 327.46-24.66 327.46-25.56L327.46-25.56Q327.46-26.49 327.95-27.08 328.44-27.66 329.46-27.66L329.46-27.66 338.77-27.66Q339.62-27.66 340.1-27.04 340.57-26.42 340.57-25.61L340.57-25.61Q340.57-24.71 340.16-24.02 339.74-23.34 338.82-23.34L338.82-23.34 336.86-23.34 344.82-7.3 350.07-18.9 347.92-23.34 346.36-23.34Q345.41-23.34 344.97-24 344.53-24.66 344.53-25.56L344.53-25.56Q344.53-26.49 345-27.08 345.48-27.66 346.51-27.66L346.51-27.66 357.32-27.66Q358.18-27.66 358.65-27.04 359.13-26.42 359.13-25.61L359.13-25.61ZM401.07-14.16L382.56-13.65Q382.56-8.86 385.55-6.36 388.54-3.86 392.91-3.86L392.91-3.86Q396.01-3.86 397.78-5.02 399.55-6.18 401.17-7.67L401.17-7.67Q401.53-7.98 401.95-8.14 402.36-8.3 402.78-8.3L402.78-8.3Q403.75-8.3 404.44-7.7 405.12-7.1 405.12-6.1L405.12-6.1Q405.12-2.98 400.59-1.18 396.06 0.61 392.72 0.61L392.72 0.61Q386.03 0.61 381.7-3.36 377.36-7.32 377.36-14.04L377.36-14.04Q377.36-20.68 381.34-24.84 385.32-29 392.13-29L392.13-29Q397.02-29 401.04-25.62 405.07-22.24 405.07-16.89L405.07-16.89Q405.07-15.06 403.94-14.7 402.8-14.33 401.07-14.16L401.07-14.16ZM398.94-18.46L398.94-18.46Q398.94-21.95 396.81-23.4 394.67-24.85 392.13-24.85L392.13-24.85Q387.84-24.85 385.31-22.73 382.78-20.61 382.47-17.09L382.47-17.09 397.14-17.41Q397.82-17.43 398.38-17.66 398.94-17.9 398.94-18.46L398.94-18.46ZM429.07-21.85L429.07-24.56Q426.14-24.56 423.84-23.27 421.55-21.97 420.35-20.19L420.35-20.19 420.35-4.3 426.9-4.3Q427.82-4.3 428.24-3.63 428.65-2.95 428.65-2.05L428.65-2.05Q428.65-1.25 428.18-0.62 427.7 0 426.85 0L426.85 0 410.71 0Q409.68 0 409.2-0.59 408.71-1.17 408.71-2.1L408.71-2.1Q408.71-3 409.16-3.65 409.61-4.3 410.56-4.3L410.56-4.3 415.35-4.3 415.35-23.9 411.86-23.05Q411.81-23.02 411.72-23.01 411.64-23 411.52-23L411.52-23Q410.78-23 410.15-23.6 409.51-24.19 409.51-24.95L409.51-24.95Q409.51-25.78 409.87-26.28 410.22-26.78 410.91-27L410.91-27 417.72-28.96Q417.81-28.96 417.84-28.98 417.86-29 417.96-29L417.96-29 418.11-29Q418.62-29 418.99-28.7 419.35-28.39 419.35-27.86L419.35-27.86 419.86-23.24Q421.55-25.81 424.3-27.4 427.04-29 431.32-29L431.32-29Q432.12-29 432.74-28.53 433.37-28.05 433.37-27.2L433.37-27.2 433.37-22Q433.37-20.97 432.78-20.48 432.19-20 431.27-20L431.27-20Q430.36-20 429.72-20.45 429.07-20.9 429.07-21.85L429.07-21.85Z" opacity="1" transform="matrix(1,0,0,1,0,0)" fill="black" class="wordmark-text-0" id="SvgjsPath4320"></path></svg></g></svg></g><g transform="matrix(1,0,0,1,0,25.924730527264533)"><svg viewBox="0 0 208 7.953540991024964" height="7.953540991024964" width="208"><g transform="matrix(1,0,0,1,0,0)"><svg width="208" viewBox="-0.9 -37.5 1294.8200000000002 49.51" height="7.953540991024964" data-palette-color="url(#4ce5d238-ec63-4569-a425-66c52e8051c2)"><path d="M21.04-12.99L21.04-12.99Q21.04-9.45 21.08-7.26 21.12-5.08 21.2-3.82 21.29-2.56 21.44-1.82 21.58-1.07 21.8-0.39L21.8-0.39Q21.09 0 20.08 0.22 19.07 0.44 18.24 0.44L18.24 0.44Q16.97 0.44 16.14-0.09 15.31-0.61 15.31-2L15.31-2 15.31-12.21 4.2-30.59-0.1-28.71-0.9-30.44Q-0.32-31.01 0.66-31.76 1.64-32.52 2.8-33.25 3.96-33.98 5.07-34.47 6.18-34.96 7.01-34.96L7.01-34.96Q7.57-34.96 8.12-34.62 8.67-34.28 9.2-33.45L9.2-33.45 19.56-16.41 19.65-16.41Q20.83-18.46 21.96-20.51 23.1-22.56 23.84-24.65 24.58-26.73 24.58-28.86L24.58-28.86Q24.58-29.91 24.32-30.96 24.05-32.01 23.61-33.06L23.61-33.06 27.44-34.69Q27.78-34.86 28.06-34.91 28.34-34.96 28.59-34.96L28.59-34.96Q29.54-34.96 29.99-34.19 30.44-33.42 30.44-32.15L30.44-32.15Q30.44-29.83 29.15-26.81 27.86-23.78 25.72-20.28 23.58-16.77 21.04-12.99ZM60.55-12.45L60.55-12.45Q60.55-8.47 58.75-5.51 56.96-2.54 53.93-0.89 50.9 0.76 47.17 0.76L47.17 0.76Q43.41 0.76 40.36-0.9 37.3-2.56 35.51-5.53 33.72-8.5 33.72-12.45L33.72-12.45Q33.72-16.46 35.51-19.45 37.3-22.44 40.36-24.1 43.41-25.76 47.17-25.76L47.17-25.76Q50.93-25.76 53.96-24.1 56.98-22.44 58.76-19.45 60.55-16.46 60.55-12.45ZM39.75-12.5L39.75-12.5Q39.75-9.74 40.36-7.3 40.97-4.86 42.58-3.36 44.19-1.86 47.17-1.86L47.17-1.86Q50.15-1.86 51.73-3.36 53.32-4.86 53.92-7.3 54.52-9.74 54.52-12.5L54.52-12.5Q54.52-15.28 53.92-17.71 53.32-20.14 51.73-21.64 50.15-23.14 47.17-23.14L47.17-23.14Q44.19-23.14 42.58-21.64 40.97-20.14 40.36-17.71 39.75-15.28 39.75-12.5ZM86.23-22.66L81.93-22.66 81.93-24.51Q82.62-24.8 83.98-25.02 85.35-25.24 86.94-25.37 88.53-25.49 89.79-25.49L89.79-25.49Q90.8-25.49 91.35-25.33 91.89-25.17 91.89-24.19L91.89-24.19 91.89-2.44 96.14-2.44 96.14-0.61Q95.31-0.15 93.41 0.15 91.5 0.44 89.75 0.44L89.75 0.44Q88.26 0.44 87.24 0.01 86.23-0.42 86.23-1.9L86.23-1.9 86.23-2.1Q86.23-2.15 85.31-1.72 84.4-1.29 82.9-0.71 81.4-0.12 79.63 0.32 77.86 0.76 76.15 0.76L76.15 0.76Q73.22 0.76 71.73-0.24 70.24-1.25 69.71-3 69.19-4.76 69.19-7.01L69.19-7.01 69.19-22.66 64.89-22.66 64.89-24.51Q65.58-24.8 66.94-25.02 68.31-25.24 69.89-25.37 71.46-25.49 72.73-25.49L72.73-25.49Q73.75-25.49 74.29-25.33 74.83-25.17 74.83-24.19L74.83-24.19 74.83-7.5Q74.83-5.03 75.49-3.94 76.15-2.86 78.25-2.86L78.25-2.86Q79.17-2.86 80.53-3.08 81.88-3.3 83.19-3.58 84.5-3.86 85.38-4.08 86.25-4.3 86.23-4.3L86.23-4.3 86.23-22.66ZM99.41-22.51L99.41-24.34Q100.1-24.66 101.46-24.88 102.83-25.1 104.42-25.22 106.01-25.34 107.28-25.34L107.28-25.34Q108.28-25.34 108.83-25.18 109.38-25.02 109.38-24.05L109.38-24.05 109.38-18.19 112.48-22.61Q114.67-25.76 118.31-25.76L118.31-25.76Q118.75-25.76 119.45-25.67 120.14-25.59 120.7-25.29 121.26-25 121.26-24.39L121.26-24.39Q121.26-24.15 121.22-24L121.22-24 120.17-20.56Q119.24-20.85 118.49-20.97 117.75-21.09 117.11-21.09L117.11-21.09Q115.8-21.09 114.6-20.36 113.4-19.63 112.4-18.58 111.4-17.53 110.63-16.52 109.86-15.5 109.38-14.94L109.38-14.94 109.38-7.35Q109.38-4.35 109.64-2.69 109.91-1.03 110.06-0.34L110.06-0.34Q109.4 0.02 108.37 0.23 107.35 0.44 106.57 0.44L106.57 0.44Q105.32 0.44 104.52-0.06 103.71-0.56 103.71-1.9L103.71-1.9 103.71-22.51 99.41-22.51ZM151.32-20.85L151.32-20.85Q153.52-19.92 155.75-18.86 157.98-17.8 159.85-16.46 161.72-15.11 162.84-13.32 163.96-11.52 163.96-9.11L163.96-9.11Q163.96-5.93 162.34-3.69 160.72-1.44 158.03-0.24 155.35 0.95 152.17 0.95L152.17 0.95Q149 0.95 145.81 0.13 142.63-0.68 139.82-2.54L139.82-2.54Q139.28-2.88 138.77-3.45 138.26-4.03 138.26-4.64L138.26-4.64Q138.26-5.15 138.62-5.54L138.62-5.54 141.11-8.5Q142.68-7.25 144.63-5.79 146.58-4.32 148.62-3.26 150.66-2.2 152.42-2.2L152.42-2.2Q153.91-2.2 155.24-2.83 156.57-3.47 157.41-4.63 158.25-5.79 158.25-7.4L158.25-7.4Q158.25-9.45 156.88-11.04 155.52-12.62 153.36-13.87 151.2-15.11 148.8-16.09L148.8-16.09Q144.87-17.75 142.86-19.43 140.84-21.12 140.15-22.79 139.45-24.46 139.45-26.05L139.45-26.05Q139.45-28.76 140.75-30.57 142.04-32.37 144.14-33.44 146.24-34.5 148.71-34.95 151.17-35.4 153.52-35.4L153.52-35.4Q154.54-35.4 156.04-35.27 157.54-35.13 159.03-34.83 160.52-34.52 161.51-33.98 162.5-33.45 162.5-32.64L162.5-32.64Q162.5-32.25 162.21-31.69L162.21-31.69 160.25-28.34Q158.11-29.59 155.64-30.87 153.17-32.15 150.27-32.15L150.27-32.15Q148.19-32.15 146.63-30.87 145.07-29.59 145.07-27L145.07-27Q145.07-25.54 145.96-24.4 146.85-23.27 148.28-22.41 149.71-21.56 151.32-20.85ZM193.85-18.19L193.85-7.35Q193.85-4.35 194.13-2.69 194.41-1.03 194.56-0.34L194.56-0.34Q193.87 0.02 192.86 0.23 191.85 0.44 191.06 0.44L191.06 0.44Q189.82 0.44 189.01-0.06 188.21-0.56 188.21-1.9L188.21-1.9 188.21-17.85Q188.21-19.85 187.78-20.97 187.35-22.09 185.35-22.09L185.35-22.09Q184.38-22.09 183.07-21.89 181.76-21.68 180.53-21.4 179.3-21.12 178.49-20.91 177.69-20.7 177.71-20.7L177.71-20.7 177.71-7.35Q177.71-4.35 177.98-2.69 178.25-1.03 178.39-0.34L178.39-0.34Q177.73 0.02 176.71 0.23 175.68 0.44 174.9 0.44L174.9 0.44Q173.66 0.44 172.85-0.06 172.05-0.56 172.05-1.9L172.05-1.9 172.05-22.56 167.75-22.56 167.75-24.39Q168.43-24.71 169.8-24.93 171.17-25.15 172.75-25.27 174.34-25.39 175.61-25.39L175.61-25.39Q176.61-25.39 177.16-25.23 177.71-25.07 177.71-24.1L177.71-24.1 177.71-22.9Q177.71-22.88 178.63-23.29 179.54-23.71 181.04-24.29 182.54-24.88 184.3-25.32 186.06-25.76 187.74-25.76L187.74-25.76Q189.45-25.76 190.99-25.17 192.53-24.58 193.16-22.9L193.16-22.9Q193.16-22.88 194.1-23.29 195.04-23.71 196.56-24.29 198.07-24.88 199.85-25.32 201.64-25.76 203.34-25.76L203.34-25.76Q206.23-25.76 207.65-24.79 209.08-23.83 209.55-22.13 210.01-20.43 210.01-18.19L210.01-18.19 210.01-2.44 214.26-2.44 214.26-0.61Q213.43-0.15 211.52 0.15 209.62 0.44 207.86 0.44L207.86 0.44Q206.37 0.44 205.36 0.01 204.35-0.42 204.35-1.9L204.35-1.9 204.35-17.85Q204.35-19.85 203.92-20.97 203.49-22.09 201.51-22.09L201.51-22.09Q200.9-22.09 199.8-21.95 198.71-21.8 197.49-21.58 196.26-21.36 195.24-21.14 194.21-20.92 193.7-20.8L193.7-20.8Q193.85-19.6 193.85-18.19L193.85-18.19ZM234.79-1.9L234.79-2.15Q234.79-2.17 234.09-1.73 233.4-1.29 232.21-0.71 231.03-0.12 229.59 0.32 228.15 0.76 226.64 0.76L226.64 0.76Q224.51 0.76 222.71-0.01 220.9-0.78 219.8-2.4 218.7-4.03 218.7-6.54L218.7-6.54Q218.7-9.35 220.32-11.04 221.95-12.72 224.8-13.46 227.66-14.21 231.35-14.21L231.35-14.21 234.79-14.21 234.79-16.04Q234.79-17.94 234.55-19.58 234.3-21.22 233.48-22.2 232.67-23.19 230.93-23.19L230.93-23.19Q229.3-23.19 227.62-22.44 225.95-21.68 224.44-20.61 222.92-19.53 221.7-18.55L221.7-18.55 219.7-21.24Q219.34-21.68 219.34-22.14L219.34-22.14Q219.34-22.95 220.34-23.61 221.34-24.27 222.9-24.76 224.46-25.24 226.21-25.5 227.95-25.76 229.44-25.76L229.44-25.76Q232.45-25.76 234.95-24.79 237.45-23.83 238.95-21.69 240.45-19.56 240.45-16.04L240.45-16.04 240.45-2.44 244.7-2.44 244.7-0.61Q243.87-0.15 241.97 0.15 240.06 0.44 238.28 0.44L238.28 0.44Q237.08 0.44 235.97 0.04 234.86-0.37 234.79-1.9L234.79-1.9ZM228.34-2.86L228.34-2.86Q229.2-2.86 230.3-3.08 231.4-3.3 232.42-3.6 233.45-3.91 234.12-4.13 234.79-4.35 234.79-4.35L234.79-4.35 234.79-11.21 230.69-11.21Q229.47-11.21 227.97-10.88 226.46-10.55 225.38-9.61 224.29-8.67 224.29-6.81L224.29-6.81Q224.29-5.08 225.34-3.97 226.39-2.86 228.34-2.86ZM247.14-22.51L247.14-24.34Q247.83-24.66 249.19-24.88 250.56-25.1 252.15-25.22 253.74-25.34 255-25.34L255-25.34Q256.01-25.34 256.56-25.18 257.1-25.02 257.1-24.05L257.1-24.05 257.1-18.19 260.21-22.61Q262.4-25.76 266.04-25.76L266.04-25.76Q266.48-25.76 267.18-25.67 267.87-25.59 268.43-25.29 268.99-25 268.99-24.39L268.99-24.39Q268.99-24.15 268.95-24L268.95-24 267.9-20.56Q266.97-20.85 266.22-20.97 265.48-21.09 264.84-21.09L264.84-21.09Q263.53-21.09 262.33-20.36 261.13-19.63 260.13-18.58 259.13-17.53 258.36-16.52 257.59-15.5 257.1-14.94L257.1-14.94 257.1-7.35Q257.1-4.35 257.37-2.69 257.64-1.03 257.79-0.34L257.79-0.34Q257.13 0.02 256.1 0.23 255.08 0.44 254.3 0.44L254.3 0.44Q253.05 0.44 252.25-0.06 251.44-0.56 251.44-1.9L251.44-1.9 251.44-22.51 247.14-22.51ZM290.82-3.39L291.6-1.71Q289.89-0.66 288.1 0.05 286.3 0.76 283.57 0.76L283.57 0.76Q280 0.76 277.93-1.37 275.85-3.49 275.85-7.25L275.85-7.25 275.85-22 270.8-22 270.8-23.1Q270.8-24.19 271.28-24.6 271.75-25 272.8-25L272.8-25 275.85-25 275.85-30.81Q275.85-32.15 276.66-32.63 277.47-33.11 278.71-33.11L278.71-33.11Q279.49-33.11 280.52-32.92 281.54-32.74 282.2-32.35L282.2-32.35Q282.06-31.67 281.79-29.98 281.52-28.3 281.52-25L281.52-25 290.01-25 290.01-23.95Q290.01-22.88 289.54-22.44 289.06-22 288.01-22L288.01-22 281.52-22 281.52-7.69Q281.52-2.15 285.57-2.15L285.57-2.15Q286.79-2.15 288.01-2.49 289.23-2.83 290.04-3.15 290.84-3.47 290.82-3.39L290.82-3.39ZM318.29-13.7L318.29-7.69Q318.29-4.59 318.66-2.84 319.04-1.1 319.19-0.39L319.19-0.39Q318.48 0 317.42 0.22 316.36 0.44 315.5 0.44L315.5 0.44Q314.23 0.44 313.39-0.09 312.55-0.61 312.55-2L312.55-2 312.55-31.25 307.84-30.96 307.84-33.11Q308.47-33.33 310.29-33.78 312.11-34.23 315.31-34.59 318.51-34.96 323.24-34.96L323.24-34.96Q326.03-34.96 328.47-34.47 330.91-33.98 332.79-32.78 334.67-31.57 335.73-29.42 336.79-27.27 336.79-23.95L336.79-23.95Q336.79-19.02 333.56-16.24 330.32-13.45 324.71-13.45L324.71-13.45Q324.1-13.45 322.27-13.49 320.43-13.53 318.29-13.7L318.29-13.7ZM318.29-31.49L318.29-17.14Q318.29-17.14 319.43-16.87 320.58-16.6 322.75-16.6L322.75-16.6Q326.1-16.6 327.87-17.65 329.64-18.7 330.3-20.39 330.96-22.07 330.96-23.95L330.96-23.95Q330.96-25.51 330.68-26.92 330.4-28.32 329.53-29.41 328.66-30.49 326.93-31.12 325.2-31.74 322.29-31.74L322.29-31.74Q321.39-31.74 320.35-31.69 319.31-31.64 318.29-31.49L318.29-31.49ZM340.38-22.51L340.38-24.34Q341.06-24.66 342.43-24.88 343.8-25.1 345.39-25.22 346.97-25.34 348.24-25.34L348.24-25.34Q349.24-25.34 349.79-25.18 350.34-25.02 350.34-24.05L350.34-24.05 350.34-18.19 353.44-22.61Q355.64-25.76 359.28-25.76L359.28-25.76Q359.72-25.76 360.41-25.67 361.11-25.59 361.67-25.29 362.23-25 362.23-24.39L362.23-24.39Q362.23-24.15 362.18-24L362.18-24 361.13-20.56Q360.21-20.85 359.46-20.97 358.72-21.09 358.08-21.09L358.08-21.09Q356.76-21.09 355.57-20.36 354.37-19.63 353.37-18.58 352.37-17.53 351.6-16.52 350.83-15.5 350.34-14.94L350.34-14.94 350.34-7.35Q350.34-4.35 350.61-2.69 350.88-1.03 351.03-0.34L351.03-0.34Q350.37 0.02 349.34 0.23 348.32 0.44 347.53 0.44L347.53 0.44Q346.29 0.44 345.48-0.06 344.68-0.56 344.68-1.9L344.68-1.9 344.68-22.51 340.38-22.51ZM381.93-1.9L381.93-2.15Q381.93-2.17 381.24-1.73 380.54-1.29 379.36-0.71 378.17-0.12 376.73 0.32 375.29 0.76 373.78 0.76L373.78 0.76Q371.66 0.76 369.85-0.01 368.04-0.78 366.94-2.4 365.84-4.03 365.84-6.54L365.84-6.54Q365.84-9.35 367.47-11.04 369.09-12.72 371.95-13.46 374.8-14.21 378.49-14.21L378.49-14.21 381.93-14.21 381.93-16.04Q381.93-17.94 381.69-19.58 381.45-21.22 380.63-22.2 379.81-23.19 378.08-23.19L378.08-23.19Q376.44-23.19 374.77-22.44 373.1-21.68 371.58-20.61 370.07-19.53 368.85-18.55L368.85-18.55 366.85-21.24Q366.48-21.68 366.48-22.14L366.48-22.14Q366.48-22.95 367.48-23.61 368.48-24.27 370.04-24.76 371.61-25.24 373.35-25.5 375.1-25.76 376.59-25.76L376.59-25.76Q379.59-25.76 382.09-24.79 384.59-23.83 386.1-21.69 387.6-19.56 387.6-16.04L387.6-16.04 387.6-2.44 391.85-2.44 391.85-0.61Q391.02-0.15 389.11 0.15 387.21 0.44 385.42 0.44L385.42 0.44Q384.23 0.44 383.12 0.04 382.01-0.37 381.93-1.9L381.93-1.9ZM375.49-2.86L375.49-2.86Q376.34-2.86 377.44-3.08 378.54-3.3 379.57-3.6 380.59-3.91 381.26-4.13 381.93-4.35 381.93-4.35L381.93-4.35 381.93-11.21 377.83-11.21Q376.61-11.21 375.11-10.88 373.61-10.55 372.52-9.61 371.44-8.67 371.44-6.81L371.44-6.81Q371.44-5.08 372.49-3.97 373.54-2.86 375.49-2.86ZM417.11-23.05L415.38-19.8Q413.77-20.73 411.57-21.79 409.38-22.85 407.23-22.85L407.23-22.85Q405.03-22.85 403.67-21.46 402.32-20.07 401.7-18.01 401.07-15.94 401.07-13.89L401.07-13.89Q401.07-10.69 402.21-8.08 403.34-5.47 405.71-3.93 408.08-2.39 411.72-2.39L411.72-2.39Q414.67-2.39 418.12-3.44L418.12-3.44 418.92-1.81Q416.92-0.46 414.34 0.15 411.77 0.76 409.33 0.76L409.33 0.76Q406.67 0.76 404.17-0.09 401.68-0.93 399.72-2.56 397.75-4.2 396.59-6.58 395.43-8.96 395.43-12.06L395.43-12.06Q395.43-16.33 397.39-19.4 399.34-22.46 402.71-24.11 406.08-25.76 410.33-25.76L410.33-25.76Q410.69-25.76 411.79-25.67 412.89-25.59 414.15-25.35 415.41-25.12 416.32-24.68 417.24-24.24 417.24-23.56L417.24-23.56Q417.24-23.19 417.11-23.05L417.11-23.05ZM441.53-3.39L442.31-1.71Q440.6-0.66 438.81 0.05 437.01 0.76 434.28 0.76L434.28 0.76Q430.71 0.76 428.64-1.37 426.56-3.49 426.56-7.25L426.56-7.25 426.56-22 421.51-22 421.51-23.1Q421.51-24.19 421.98-24.6 422.46-25 423.51-25L423.51-25 426.56-25 426.56-30.81Q426.56-32.15 427.37-32.63 428.17-33.11 429.42-33.11L429.42-33.11Q430.2-33.11 431.23-32.92 432.25-32.74 432.91-32.35L432.91-32.35Q432.76-31.67 432.5-29.98 432.23-28.3 432.23-25L432.23-25 440.72-25 440.72-23.95Q440.72-22.88 440.25-22.44 439.77-22 438.72-22L438.72-22 432.23-22 432.23-7.69Q432.23-2.15 436.28-2.15L436.28-2.15Q437.5-2.15 438.72-2.49 439.94-2.83 440.75-3.15 441.55-3.47 441.53-3.39L441.53-3.39ZM448.58-33.5L448.58-33.5Q448.58-34.89 449.6-35.84 450.61-36.79 452.03-36.79L452.03-36.79Q453.47-36.79 454.47-35.84 455.47-34.89 455.47-33.5L455.47-33.5Q455.47-32.15 454.47-31.2 453.47-30.25 452.03-30.25L452.03-30.25Q450.61-30.25 449.6-31.2 448.58-32.15 448.58-33.5ZM454.83-24.15L454.83-2.44 459.08-2.44 459.08-0.61Q458.25-0.15 456.35 0.15 454.44 0.44 452.69 0.44L452.69 0.44Q451.2 0.44 450.18 0.01 449.17-0.42 449.17-1.9L449.17-1.9 449.17-22.61 444.87-22.61 444.87-24.44Q445.56-24.76 446.92-24.98 448.29-25.2 449.88-25.32 451.46-25.44 452.73-25.44L452.73-25.44Q453.74-25.44 454.28-25.28 454.83-25.12 454.83-24.15L454.83-24.15ZM485.18-23.05L483.45-19.8Q481.84-20.73 479.64-21.79 477.44-22.85 475.29-22.85L475.29-22.85Q473.1-22.85 471.74-21.46 470.39-20.07 469.76-18.01 469.14-15.94 469.14-13.89L469.14-13.89Q469.14-10.69 470.28-8.08 471.41-5.47 473.78-3.93 476.15-2.39 479.79-2.39L479.79-2.39Q482.74-2.39 486.18-3.44L486.18-3.44 486.99-1.81Q484.99-0.46 482.41 0.15 479.83 0.76 477.39 0.76L477.39 0.76Q474.73 0.76 472.24-0.09 469.75-0.93 467.79-2.56 465.82-4.2 464.66-6.58 463.5-8.96 463.5-12.06L463.5-12.06Q463.5-16.33 465.45-19.4 467.41-22.46 470.78-24.11 474.15-25.76 478.39-25.76L478.39-25.76Q478.76-25.76 479.86-25.67 480.96-25.59 482.21-25.35 483.47-25.12 484.39-24.68 485.3-24.24 485.3-23.56L485.3-23.56Q485.3-23.19 485.18-23.05L485.18-23.05ZM490.45-12.5L490.45-12.5Q490.45-16.38 492.1-19.37 493.75-22.36 496.84-24.06 499.93-25.76 504.25-25.76L504.25-25.76Q507.5-25.76 509.83-24.41 512.16-23.07 513.4-20.9 514.65-18.73 514.65-16.21L514.65-16.21Q514.65-15.06 514.36-13.92 514.06-12.77 513.24-12.01 512.43-11.25 510.79-11.25L510.79-11.25 496.19-11.25Q496.68-6.86 499.66-4.53 502.64-2.2 506.93-2.2L506.93-2.2Q509.94-2.2 513.18-3.25L513.18-3.25 513.99-1.61Q512.01-0.27 509.47 0.34 506.93 0.95 504.49 0.95L504.49 0.95Q501.81 0.95 499.29 0.11 496.78-0.73 494.79-2.42 492.8-4.1 491.63-6.62 490.45-9.13 490.45-12.5ZM496.14-14.26L508.79-14.26Q508.94-14.75 508.98-15.23 509.03-15.72 509.03-16.26L509.03-16.26Q509.03-17.87 508.34-19.43 507.64-21 506.29-22.02 504.93-23.05 502.95-23.05L502.95-23.05Q500.46-23.05 499.01-21.81 497.56-20.58 496.91-18.58 496.26-16.58 496.14-14.26L496.14-14.26ZM543.16-13.7L543.16-7.69Q543.16-4.59 543.54-2.84 543.92-1.1 544.07-0.39L544.07-0.39Q543.36 0 542.3 0.22 541.24 0.44 540.38 0.44L540.38 0.44Q539.11 0.44 538.27-0.09 537.43-0.61 537.43-2L537.43-2 537.43-31.25 532.71-30.96 532.71-33.11Q533.35-33.33 535.17-33.78 536.99-34.23 540.19-34.59 543.38-34.96 548.12-34.96L548.12-34.96Q550.9-34.96 553.34-34.47 555.79-33.98 557.67-32.78 559.55-31.57 560.61-29.42 561.67-27.27 561.67-23.95L561.67-23.95Q561.67-19.02 558.44-16.24 555.2-13.45 549.58-13.45L549.58-13.45Q548.97-13.45 547.14-13.49 545.31-13.53 543.16-13.7L543.16-13.7ZM543.16-31.49L543.16-17.14Q543.16-17.14 544.31-16.87 545.46-16.6 547.63-16.6L547.63-16.6Q550.98-16.6 552.75-17.65 554.52-18.7 555.18-20.39 555.83-22.07 555.83-23.95L555.83-23.95Q555.83-25.51 555.55-26.92 555.27-28.32 554.41-29.41 553.54-30.49 551.81-31.12 550.07-31.74 547.17-31.74L547.17-31.74Q546.26-31.74 545.23-31.69 544.19-31.64 543.16-31.49L543.16-31.49ZM582.59-1.9L582.59-2.15Q582.59-2.17 581.9-1.73 581.2-1.29 580.02-0.71 578.83-0.12 577.39 0.32 575.95 0.76 574.44 0.76L574.44 0.76Q572.31 0.76 570.51-0.01 568.7-0.78 567.6-2.4 566.5-4.03 566.5-6.54L566.5-6.54Q566.5-9.35 568.13-11.04 569.75-12.72 572.61-13.46 575.46-14.21 579.15-14.21L579.15-14.21 582.59-14.21 582.59-16.04Q582.59-17.94 582.35-19.58 582.1-21.22 581.29-22.2 580.47-23.19 578.74-23.19L578.74-23.19Q577.1-23.19 575.43-22.44 573.75-21.68 572.24-20.61 570.73-19.53 569.51-18.55L569.51-18.55 567.5-21.24Q567.14-21.68 567.14-22.14L567.14-22.14Q567.14-22.95 568.14-23.61 569.14-24.27 570.7-24.76 572.27-25.24 574.01-25.5 575.76-25.76 577.25-25.76L577.25-25.76Q580.25-25.76 582.75-24.79 585.25-23.83 586.76-21.69 588.26-19.56 588.26-16.04L588.26-16.04 588.26-2.44 592.5-2.44 592.5-0.61Q591.67-0.15 589.77 0.15 587.87 0.44 586.08 0.44L586.08 0.44Q584.89 0.44 583.78 0.04 582.67-0.37 582.59-1.9L582.59-1.9ZM576.15-2.86L576.15-2.86Q577-2.86 578.1-3.08 579.2-3.3 580.22-3.6 581.25-3.91 581.92-4.13 582.59-4.35 582.59-4.35L582.59-4.35 582.59-11.21 578.49-11.21Q577.27-11.21 575.77-10.88 574.27-10.55 573.18-9.61 572.09-8.67 572.09-6.81L572.09-6.81Q572.09-5.08 573.14-3.97 574.19-2.86 576.15-2.86ZM594.95-22.51L594.95-24.34Q595.63-24.66 597-24.88 598.36-25.1 599.95-25.22 601.54-25.34 602.81-25.34L602.81-25.34Q603.81-25.34 604.36-25.18 604.91-25.02 604.91-24.05L604.91-24.05 604.91-18.19 608.01-22.61Q610.21-25.76 613.84-25.76L613.84-25.76Q614.28-25.76 614.98-25.67 615.67-25.59 616.24-25.29 616.8-25 616.8-24.39L616.8-24.39Q616.8-24.15 616.75-24L616.75-24 615.7-20.56Q614.77-20.85 614.03-20.97 613.28-21.09 612.65-21.09L612.65-21.09Q611.33-21.09 610.13-20.36 608.94-19.63 607.93-18.58 606.93-17.53 606.16-16.52 605.4-15.5 604.91-14.94L604.91-14.94 604.91-7.35Q604.91-4.35 605.18-2.69 605.44-1.03 605.59-0.34L605.59-0.34Q604.93 0.02 603.91 0.23 602.88 0.44 602.1 0.44L602.1 0.44Q600.85 0.44 600.05-0.06 599.24-0.56 599.24-1.9L599.24-1.9 599.24-22.51 594.95-22.51ZM638.62-3.39L639.4-1.71Q637.7-0.66 635.9 0.05 634.11 0.76 631.37 0.76L631.37 0.76Q627.81 0.76 625.73-1.37 623.66-3.49 623.66-7.25L623.66-7.25 623.66-22 618.6-22 618.6-23.1Q618.6-24.19 619.08-24.6 619.56-25 620.61-25L620.61-25 623.66-25 623.66-30.81Q623.66-32.15 624.46-32.63 625.27-33.11 626.51-33.11L626.51-33.11Q627.29-33.11 628.32-32.92 629.35-32.74 630-32.35L630-32.35Q629.86-31.67 629.59-29.98 629.32-28.3 629.32-25L629.32-25 637.82-25 637.82-23.95Q637.82-22.88 637.34-22.44 636.87-22 635.82-22L635.82-22 629.32-22 629.32-7.69Q629.32-2.15 633.37-2.15L633.37-2.15Q634.59-2.15 635.82-2.49 637.04-2.83 637.84-3.15 638.65-3.47 638.62-3.39L638.62-3.39ZM646.26-1.9L646.26-22.56 641.97-22.56 641.97-24.39Q642.65-24.71 644.02-24.93 645.39-25.15 646.97-25.27 648.56-25.39 649.83-25.39L649.83-25.39Q650.83-25.39 651.38-25.23 651.93-25.07 651.93-24.1L651.93-24.1 651.93-22.9Q652.42-23.07 653.98-23.77 655.54-24.46 657.73-25.11 659.91-25.76 662.23-25.76L662.23-25.76Q665.06-25.76 666.5-24.74 667.94-23.73 668.46-21.98 668.97-20.24 668.97-17.99L668.97-17.99 668.97-2.44 673.22-2.44 673.22-0.61Q672.39-0.15 670.48 0.15 668.58 0.44 666.82 0.44L666.82 0.44Q665.33 0.44 664.33 0.01 663.33-0.42 663.33-1.9L663.33-1.9 663.33-17.5Q663.33-19.97 662.67-21.06 662.01-22.14 659.91-22.14L659.91-22.14Q658.91-22.14 657.6-21.94 656.3-21.73 655.04-21.46 653.78-21.19 652.92-20.97 652.05-20.75 651.93-20.7L651.93-20.7 651.93-7.35Q651.93-4.35 652.2-2.69 652.47-1.03 652.61-0.34L652.61-0.34Q651.95 0.02 650.93 0.23 649.9 0.44 649.12 0.44L649.12 0.44Q647.88 0.44 647.07-0.06 646.26-0.56 646.26-1.9L646.26-1.9ZM677.61-12.5L677.61-12.5Q677.61-16.38 679.26-19.37 680.91-22.36 684-24.06 687.08-25.76 691.41-25.76L691.41-25.76Q694.65-25.76 696.98-24.41 699.32-23.07 700.56-20.9 701.81-18.73 701.81-16.21L701.81-16.21Q701.81-15.06 701.51-13.92 701.22-12.77 700.4-12.01 699.58-11.25 697.95-11.25L697.95-11.25 683.35-11.25Q683.84-6.86 686.82-4.53 689.79-2.2 694.09-2.2L694.09-2.2Q697.09-2.2 700.34-3.25L700.34-3.25 701.15-1.61Q699.17-0.27 696.63 0.34 694.09 0.95 691.65 0.95L691.65 0.95Q688.96 0.95 686.45 0.11 683.94-0.73 681.95-2.42 679.96-4.1 678.78-6.62 677.61-9.13 677.61-12.5ZM683.3-14.26L695.95-14.26Q696.09-14.75 696.14-15.23 696.19-15.72 696.19-16.26L696.19-16.26Q696.19-17.87 695.5-19.43 694.8-21 693.44-22.02 692.09-23.05 690.11-23.05L690.11-23.05Q687.62-23.05 686.17-21.81 684.72-20.58 684.07-18.58 683.42-16.58 683.3-14.26L683.3-14.26ZM706.2-22.51L706.2-24.34Q706.88-24.66 708.25-24.88 709.62-25.1 711.21-25.22 712.79-25.34 714.06-25.34L714.06-25.34Q715.06-25.34 715.61-25.18 716.16-25.02 716.16-24.05L716.16-24.05 716.16-18.19 719.26-22.61Q721.46-25.76 725.1-25.76L725.1-25.76Q725.54-25.76 726.23-25.67 726.93-25.59 727.49-25.29 728.05-25 728.05-24.39L728.05-24.39Q728.05-24.15 728-24L728-24 726.95-20.56Q726.03-20.85 725.28-20.97 724.54-21.09 723.9-21.09L723.9-21.09Q722.58-21.09 721.39-20.36 720.19-19.63 719.19-18.58 718.19-17.53 717.42-16.52 716.65-15.5 716.16-14.94L716.16-14.94 716.16-7.35Q716.16-4.35 716.43-2.69 716.7-1.03 716.85-0.34L716.85-0.34Q716.19 0.02 715.16 0.23 714.14 0.44 713.35 0.44L713.35 0.44Q712.11 0.44 711.3-0.06 710.5-0.56 710.5-1.9L710.5-1.9 710.5-22.51 706.2-22.51ZM760.18-22L755.18-22 755.18 0.39Q755.18 4.37 753.45 6.95 751.73 9.52 749.02 10.77 746.31 12.01 743.33 12.01L743.33 12.01Q742.68 12.01 741.54 11.91 740.41 11.82 739.49 11.5 738.57 11.18 738.57 10.55L738.57 10.55Q738.57 10.4 738.67 10.11L738.67 10.11 740.28 6.4Q742.11 7.18 743.9 7.89 745.68 8.59 746.88 8.59L746.88 8.59Q748.27 8.59 748.83 7.31 749.39 6.03 749.49 4.14 749.58 2.25 749.58 0.44L749.58 0.44 749.54-22 743.73-22 743.73-23.1Q743.73-24.19 744.2-24.6 744.68-25 745.73-25L745.73-25 749.54-25 749.54-26.61Q749.54-30.52 751.1-32.91 752.66-35.3 755.19-36.4 757.71-37.5 760.57-37.5L760.57-37.5Q761.04-37.5 761.9-37.45 762.77-37.4 763.68-37.22 764.6-37.04 765.23-36.66 765.87-36.28 765.87-35.64L765.87-35.64Q765.87-35.38 765.63-34.96L765.63-34.96 763.82-31.69Q761.99-32.69 760.4-33.54 758.81-34.4 757.57-34.4L757.57-34.4Q755.93-34.4 755.55-32.8 755.18-31.2 755.18-28.3L755.18-28.3 755.18-25 762.18-25 762.18-23.95Q762.18-22.88 761.71-22.44 761.23-22 760.18-22L760.18-22ZM792.43-12.45L792.43-12.45Q792.43-8.47 790.64-5.51 788.84-2.54 785.82-0.89 782.79 0.76 779.05 0.76L779.05 0.76Q775.29 0.76 772.24-0.9 769.19-2.56 767.4-5.53 765.6-8.5 765.6-12.45L765.6-12.45Q765.6-16.46 767.4-19.45 769.19-22.44 772.24-24.1 775.29-25.76 779.05-25.76L779.05-25.76Q782.81-25.76 785.84-24.1 788.87-22.44 790.65-19.45 792.43-16.46 792.43-12.45ZM771.63-12.5L771.63-12.5Q771.63-9.74 772.24-7.3 772.85-4.86 774.46-3.36 776.07-1.86 779.05-1.86L779.05-1.86Q782.03-1.86 783.62-3.36 785.21-4.86 785.8-7.3 786.4-9.74 786.4-12.5L786.4-12.5Q786.4-15.28 785.8-17.71 785.21-20.14 783.62-21.64 782.03-23.14 779.05-23.14L779.05-23.14Q776.07-23.14 774.46-21.64 772.85-20.14 772.24-17.71 771.63-15.28 771.63-12.5ZM796.9-22.51L796.9-24.34Q797.58-24.66 798.95-24.88 800.32-25.1 801.9-25.22 803.49-25.34 804.76-25.34L804.76-25.34Q805.76-25.34 806.31-25.18 806.86-25.02 806.86-24.05L806.86-24.05 806.86-18.19 809.96-22.61Q812.16-25.76 815.8-25.76L815.8-25.76Q816.24-25.76 816.93-25.67 817.63-25.59 818.19-25.29 818.75-25 818.75-24.39L818.75-24.39Q818.75-24.15 818.7-24L818.7-24 817.65-20.56Q816.72-20.85 815.98-20.97 815.23-21.09 814.6-21.09L814.6-21.09Q813.28-21.09 812.08-20.36 810.89-19.63 809.89-18.58 808.89-17.53 808.12-16.52 807.35-15.5 806.86-14.94L806.86-14.94 806.86-7.35Q806.86-4.35 807.13-2.69 807.4-1.03 807.54-0.34L807.54-0.34Q806.88 0.02 805.86 0.23 804.83 0.44 804.05 0.44L804.05 0.44Q802.81 0.44 802-0.06 801.2-0.56 801.2-1.9L801.2-1.9 801.2-22.51 796.9-22.51ZM839.45-1.9L839.45-31.91 834.74-31.91 834.74-33.84Q835.5-34.23 837.55-34.59 839.6-34.96 841.99-34.96L841.99-34.96Q843.95-34.96 844.57-34.75 845.19-34.55 845.19-33.69L845.19-33.69 845.19-2.81 849.8-2.81 849.8-0.71Q848.95-0.24 846.92 0.1 844.9 0.44 842.94 0.44L842.94 0.44Q841.46 0.44 840.45 0.01 839.45-0.42 839.45-1.9L839.45-1.9ZM857.42-1.9L857.42-22.56 853.13-22.56 853.13-24.39Q853.81-24.71 855.18-24.93 856.54-25.15 858.13-25.27 859.72-25.39 860.99-25.39L860.99-25.39Q861.99-25.39 862.54-25.23 863.09-25.07 863.09-24.1L863.09-24.1 863.09-22.9Q863.57-23.07 865.14-23.77 866.7-24.46 868.88-25.11 871.07-25.76 873.39-25.76L873.39-25.76Q876.22-25.76 877.66-24.74 879.1-23.73 879.61-21.98 880.13-20.24 880.13-17.99L880.13-17.99 880.13-2.44 884.38-2.44 884.38-0.61Q883.54-0.15 881.64 0.15 879.74 0.44 877.98 0.44L877.98 0.44Q876.49 0.44 875.49 0.01 874.49-0.42 874.49-1.9L874.49-1.9 874.49-17.5Q874.49-19.97 873.83-21.06 873.17-22.14 871.07-22.14L871.07-22.14Q870.07-22.14 868.76-21.94 867.46-21.73 866.2-21.46 864.94-21.19 864.07-20.97 863.21-20.75 863.09-20.7L863.09-20.7 863.09-7.35Q863.09-4.35 863.35-2.69 863.62-1.03 863.77-0.34L863.77-0.34Q863.11 0.02 862.08 0.23 861.06 0.44 860.28 0.44L860.28 0.44Q859.03 0.44 858.23-0.06 857.42-0.56 857.42-1.9L857.42-1.9ZM907.01-3.39L907.79-1.71Q906.08-0.66 904.28 0.05 902.49 0.76 899.76 0.76L899.76 0.76Q896.19 0.76 894.12-1.37 892.04-3.49 892.04-7.25L892.04-7.25 892.04-22 886.99-22 886.99-23.1Q886.99-24.19 887.46-24.6 887.94-25 888.99-25L888.99-25 892.04-25 892.04-30.81Q892.04-32.15 892.85-32.63 893.65-33.11 894.9-33.11L894.9-33.11Q895.68-33.11 896.7-32.92 897.73-32.74 898.39-32.35L898.39-32.35Q898.24-31.67 897.97-29.98 897.71-28.3 897.71-25L897.71-25 906.2-25 906.2-23.95Q906.2-22.88 905.73-22.44 905.25-22 904.2-22L904.2-22 897.71-22 897.71-7.69Q897.71-2.15 901.76-2.15L901.76-2.15Q902.98-2.15 904.2-2.49 905.42-2.83 906.23-3.15 907.03-3.47 907.01-3.39L907.01-3.39ZM910.42-12.5L910.42-12.5Q910.42-16.38 912.07-19.37 913.72-22.36 916.81-24.06 919.9-25.76 924.22-25.76L924.22-25.76Q927.47-25.76 929.8-24.41 932.13-23.07 933.37-20.9 934.62-18.73 934.62-16.21L934.62-16.21Q934.62-15.06 934.33-13.92 934.03-12.77 933.22-12.01 932.4-11.25 930.76-11.25L930.76-11.25 916.16-11.25Q916.65-6.86 919.63-4.53 922.61-2.2 926.9-2.2L926.9-2.2Q929.91-2.2 933.15-3.25L933.15-3.25 933.96-1.61Q931.98-0.27 929.44 0.34 926.9 0.95 924.46 0.95L924.46 0.95Q921.78 0.95 919.26 0.11 916.75-0.73 914.76-2.42 912.77-4.1 911.6-6.62 910.42-9.13 910.42-12.5ZM916.11-14.26L928.76-14.26Q928.91-14.75 928.96-15.23 929-15.72 929-16.26L929-16.26Q929-17.87 928.31-19.43 927.61-21 926.26-22.02 924.9-23.05 922.92-23.05L922.92-23.05Q920.43-23.05 918.98-21.81 917.53-20.58 916.88-18.58 916.24-16.58 916.11-14.26L916.11-14.26ZM939.01-22.51L939.01-24.34Q939.7-24.66 941.06-24.88 942.43-25.1 944.02-25.22 945.61-25.34 946.88-25.34L946.88-25.34Q947.88-25.34 948.43-25.18 948.97-25.02 948.97-24.05L948.97-24.05 948.97-18.19 952.08-22.61Q954.27-25.76 957.91-25.76L957.91-25.76Q958.35-25.76 959.05-25.67 959.74-25.59 960.3-25.29 960.86-25 960.86-24.39L960.86-24.39Q960.86-24.15 960.82-24L960.82-24 959.77-20.56Q958.84-20.85 958.09-20.97 957.35-21.09 956.71-21.09L956.71-21.09Q955.4-21.09 954.2-20.36 953-19.63 952-18.58 951-17.53 950.23-16.52 949.46-15.5 948.97-14.94L948.97-14.94 948.97-7.35Q948.97-4.35 949.24-2.69 949.51-1.03 949.66-0.34L949.66-0.34Q949 0.02 947.97 0.23 946.95 0.44 946.17 0.44L946.17 0.44Q944.92 0.44 944.12-0.06 943.31-0.56 943.31-1.9L943.31-1.9 943.31-22.51 939.01-22.51ZM971.97-24.29L971.97-24.29Q972-24.22 972.55-22.77 973.1-21.31 973.95-19.07 974.8-16.82 975.78-14.31 976.76-11.79 977.65-9.52 978.54-7.25 979.17-5.79 979.81-4.32 979.96-4.2L979.96-4.2Q980.76-5.47 981.64-7.25 982.52-9.03 983.29-11.02 984.06-13.01 984.53-14.95 985.01-16.89 985.01-18.51L985.01-18.51Q985.01-20.24 984.56-21.44 984.11-22.63 983.76-23.46L983.76-23.46 986.96-25.05Q987.82-25.44 988.35-25.44L988.35-25.44Q989.26-25.44 989.59-24.63 989.92-23.83 989.92-23.05L989.92-23.05Q989.92-21.51 989.27-19.3 988.62-17.09 987.56-14.51 986.5-11.94 985.24-9.3 983.98-6.67 982.75-4.26 981.52-1.86 980.52 0L980.52 0 977.95 0Q977.12 0 976.35-0.45 975.59-0.9 975.17-1.9L975.17-1.9 967.07-20.95 963.21-19.24 962.45-20.95Q963.04-21.46 964.1-22.2 965.16-22.95 966.38-23.69 967.6-24.44 968.71-24.94 969.82-25.44 970.51-25.44L970.51-25.44Q970.97-25.44 971.35-25.18 971.73-24.93 971.97-24.29ZM997.31-33.5L997.31-33.5Q997.31-34.89 998.33-35.84 999.34-36.79 1000.76-36.79L1000.76-36.79Q1002.2-36.79 1003.2-35.84 1004.2-34.89 1004.2-33.5L1004.2-33.5Q1004.2-32.15 1003.2-31.2 1002.2-30.25 1000.76-30.25L1000.76-30.25Q999.34-30.25 998.33-31.2 997.31-32.15 997.31-33.5ZM1003.56-24.15L1003.56-2.44 1007.81-2.44 1007.81-0.61Q1006.98-0.15 1005.08 0.15 1003.17 0.44 1001.42 0.44L1001.42 0.44Q999.93 0.44 998.91 0.01 997.9-0.42 997.9-1.9L997.9-1.9 997.9-22.61 993.6-22.61 993.6-24.44Q994.29-24.76 995.65-24.98 997.02-25.2 998.61-25.32 1000.2-25.44 1001.46-25.44L1001.46-25.44Q1002.47-25.44 1003.02-25.28 1003.56-25.12 1003.56-24.15L1003.56-24.15ZM1012.3-12.5L1012.3-12.5Q1012.3-16.38 1013.95-19.37 1015.6-22.36 1018.69-24.06 1021.78-25.76 1026.1-25.76L1026.1-25.76Q1029.35-25.76 1031.68-24.41 1034.01-23.07 1035.25-20.9 1036.5-18.73 1036.5-16.21L1036.5-16.21Q1036.5-15.06 1036.21-13.92 1035.91-12.77 1035.1-12.01 1034.28-11.25 1032.64-11.25L1032.64-11.25 1018.04-11.25Q1018.53-6.86 1021.51-4.53 1024.49-2.2 1028.78-2.2L1028.78-2.2Q1031.79-2.2 1035.03-3.25L1035.03-3.25 1035.84-1.61Q1033.86-0.27 1031.32 0.34 1028.78 0.95 1026.34 0.95L1026.34 0.95Q1023.66 0.95 1021.14 0.11 1018.63-0.73 1016.64-2.42 1014.65-4.1 1013.48-6.62 1012.3-9.13 1012.3-12.5ZM1017.99-14.26L1030.64-14.26Q1030.79-14.75 1030.83-15.23 1030.88-15.72 1030.88-16.26L1030.88-16.26Q1030.88-17.87 1030.19-19.43 1029.49-21 1028.14-22.02 1026.78-23.05 1024.8-23.05L1024.8-23.05Q1022.31-23.05 1020.86-21.81 1019.41-20.58 1018.76-18.58 1018.12-16.58 1017.99-14.26L1017.99-14.26ZM1041.02-19.46L1040.11-21.04Q1040.92-21.75 1042.15-22.79 1043.38-23.83 1044.85-24.63 1046.31-25.44 1047.78-25.44L1047.78-25.44Q1048.29-25.44 1048.78-25.15 1049.27-24.85 1049.58-24L1049.58-24Q1049.61-23.93 1050.12-22.49 1050.63-21.04 1051.43-18.81 1052.22-16.58 1053.14-14.07 1054.05-11.57 1054.9-9.34 1055.74-7.1 1056.34-5.64 1056.93-4.17 1057.08-4.05L1057.08-4.05Q1057.15-4.17 1057.53-5.25 1057.91-6.32 1058.47-7.97 1059.03-9.62 1059.63-11.52 1060.23-13.43 1060.75-15.28 1061.28-17.14 1061.57-18.55L1061.57-18.55 1059.57-23.51Q1060.11-24 1061.33-24.72 1062.55-25.44 1063.67-25.44L1063.67-25.44Q1064.23-25.44 1064.72-25.15 1065.21-24.85 1065.53-24.1L1065.53-24.1Q1065.53-24.1 1066-22.68 1066.48-21.26 1067.25-19.02 1068.02-16.77 1068.9-14.25 1069.78-11.72 1070.59-9.44 1071.41-7.15 1072-5.66 1072.58-4.17 1072.73-4.05L1072.73-4.05Q1073.39-5.42 1074.11-7.3 1074.83-9.18 1075.46-11.27 1076.1-13.35 1076.49-15.37 1076.88-17.38 1076.88-18.99L1076.88-18.99Q1076.88-20.61 1076.51-21.68 1076.15-22.75 1075.78-23.46L1075.78-23.46 1078.17-24.66Q1078.64-24.88 1079.33-25.16 1080.03-25.44 1080.47-25.44L1080.47-25.44Q1081.4-25.44 1081.67-24.57 1081.93-23.71 1081.93-22.95L1081.93-22.95Q1081.93-21.44 1081.37-19.2 1080.81-16.97 1079.87-14.36 1078.93-11.74 1077.78-9.09 1076.64-6.45 1075.46-4.06 1074.29-1.68 1073.27 0.05L1073.27 0.05 1070.73 0.05Q1069.9 0.05 1069.15-0.42 1068.41-0.88 1068.02-1.81L1068.02-1.81 1063.48-13.84Q1062.99-12.38 1062.29-10.49 1061.6-8.59 1060.78-6.63 1059.96-4.66 1059.14-2.91 1058.33-1.15 1057.62 0.05L1057.62 0.05 1055.08 0.05Q1054.25 0.05 1053.49-0.42 1052.73-0.88 1052.32-1.81L1052.32-1.81 1044.63-21.04 1041.02-19.46ZM1113.67-20.85L1113.67-20.85Q1115.87-19.92 1118.1-18.86 1120.34-17.8 1122.2-16.46 1124.07-15.11 1125.2-13.32 1126.32-11.52 1126.32-9.11L1126.32-9.11Q1126.32-5.93 1124.69-3.69 1123.07-1.44 1120.39-0.24 1117.7 0.95 1114.53 0.95L1114.53 0.95Q1111.35 0.95 1108.17 0.13 1104.98-0.68 1102.17-2.54L1102.17-2.54Q1101.64-2.88 1101.12-3.45 1100.61-4.03 1100.61-4.64L1100.61-4.64Q1100.61-5.15 1100.98-5.54L1100.98-5.54 1103.47-8.5Q1105.03-7.25 1106.98-5.79 1108.94-4.32 1110.97-3.26 1113.01-2.2 1114.77-2.2L1114.77-2.2Q1116.26-2.2 1117.59-2.83 1118.92-3.47 1119.76-4.63 1120.61-5.79 1120.61-7.4L1120.61-7.4Q1120.61-9.45 1119.24-11.04 1117.87-12.62 1115.71-13.87 1113.55-15.11 1111.16-16.09L1111.16-16.09Q1107.23-17.75 1105.21-19.43 1103.2-21.12 1102.5-22.79 1101.81-24.46 1101.81-26.05L1101.81-26.05Q1101.81-28.76 1103.1-30.57 1104.39-32.37 1106.49-33.44 1108.59-34.5 1111.06-34.95 1113.53-35.4 1115.87-35.4L1115.87-35.4Q1116.89-35.4 1118.4-35.27 1119.9-35.13 1121.39-34.83 1122.88-34.52 1123.86-33.98 1124.85-33.45 1124.85-32.64L1124.85-32.64Q1124.85-32.25 1124.56-31.69L1124.56-31.69 1122.61-28.34Q1120.46-29.59 1117.99-30.87 1115.53-32.15 1112.62-32.15L1112.62-32.15Q1110.55-32.15 1108.98-30.87 1107.42-29.59 1107.42-27L1107.42-27Q1107.42-25.54 1108.31-24.4 1109.2-23.27 1110.63-22.41 1112.06-21.56 1113.67-20.85ZM1151.32-22.66L1147.02-22.66 1147.02-24.51Q1147.71-24.8 1149.07-25.02 1150.44-25.24 1152.03-25.37 1153.61-25.49 1154.88-25.49L1154.88-25.49Q1155.88-25.49 1156.43-25.33 1156.98-25.17 1156.98-24.19L1156.98-24.19 1156.98-2.44 1161.23-2.44 1161.23-0.61Q1160.4-0.15 1158.5 0.15 1156.59 0.44 1154.83 0.44L1154.83 0.44Q1153.34 0.44 1152.33 0.01 1151.32-0.42 1151.32-1.9L1151.32-1.9 1151.32-2.1Q1151.32-2.15 1150.4-1.72 1149.49-1.29 1147.99-0.71 1146.48-0.12 1144.71 0.32 1142.94 0.76 1141.24 0.76L1141.24 0.76Q1138.31 0.76 1136.82-0.24 1135.33-1.25 1134.8-3 1134.28-4.76 1134.28-7.01L1134.28-7.01 1134.28-22.66 1129.98-22.66 1129.98-24.51Q1130.66-24.8 1132.03-25.02 1133.4-25.24 1134.97-25.37 1136.55-25.49 1137.82-25.49L1137.82-25.49Q1138.84-25.49 1139.38-25.33 1139.92-25.17 1139.92-24.19L1139.92-24.19 1139.92-7.5Q1139.92-5.03 1140.58-3.94 1141.24-2.86 1143.33-2.86L1143.33-2.86Q1144.26-2.86 1145.62-3.08 1146.97-3.3 1148.28-3.58 1149.58-3.86 1150.46-4.08 1151.34-4.3 1151.32-4.3L1151.32-4.3 1151.32-22.66ZM1187.33-23.05L1185.6-19.8Q1183.98-20.73 1181.79-21.79 1179.59-22.85 1177.44-22.85L1177.44-22.85Q1175.24-22.85 1173.89-21.46 1172.53-20.07 1171.91-18.01 1171.29-15.94 1171.29-13.89L1171.29-13.89Q1171.29-10.69 1172.42-8.08 1173.56-5.47 1175.93-3.93 1178.3-2.39 1181.93-2.39L1181.93-2.39Q1184.89-2.39 1188.33-3.44L1188.33-3.44 1189.14-1.81Q1187.13-0.46 1184.56 0.15 1181.98 0.76 1179.54 0.76L1179.54 0.76Q1176.88 0.76 1174.39-0.09 1171.9-0.93 1169.93-2.56 1167.97-4.2 1166.81-6.58 1165.65-8.96 1165.65-12.06L1165.65-12.06Q1165.65-16.33 1167.6-19.4 1169.56-22.46 1172.92-24.11 1176.29-25.76 1180.54-25.76L1180.54-25.76Q1180.91-25.76 1182.01-25.67 1183.11-25.59 1184.36-25.35 1185.62-25.12 1186.54-24.68 1187.45-24.24 1187.45-23.56L1187.45-23.56Q1187.45-23.19 1187.33-23.05L1187.33-23.05ZM1214.21-23.05L1212.48-19.8Q1210.86-20.73 1208.67-21.79 1206.47-22.85 1204.32-22.85L1204.32-22.85Q1202.12-22.85 1200.77-21.46 1199.41-20.07 1198.79-18.01 1198.17-15.94 1198.17-13.89L1198.17-13.89Q1198.17-10.69 1199.3-8.08 1200.44-5.47 1202.81-3.93 1205.18-2.39 1208.81-2.39L1208.81-2.39Q1211.77-2.39 1215.21-3.44L1215.21-3.44 1216.02-1.81Q1214.01-0.46 1211.44 0.15 1208.86 0.76 1206.42 0.76L1206.42 0.76Q1203.76 0.76 1201.27-0.09 1198.78-0.93 1196.81-2.56 1194.85-4.2 1193.69-6.58 1192.53-8.96 1192.53-12.06L1192.53-12.06Q1192.53-16.33 1194.48-19.4 1196.44-22.46 1199.8-24.11 1203.17-25.76 1207.42-25.76L1207.42-25.76Q1207.79-25.76 1208.89-25.67 1209.99-25.59 1211.24-25.35 1212.5-25.12 1213.42-24.68 1214.33-24.24 1214.33-23.56L1214.33-23.56Q1214.33-23.19 1214.21-23.05L1214.21-23.05ZM1219.48-12.5L1219.48-12.5Q1219.48-16.38 1221.13-19.37 1222.78-22.36 1225.87-24.06 1228.96-25.76 1233.28-25.76L1233.28-25.76Q1236.52-25.76 1238.85-24.41 1241.19-23.07 1242.43-20.9 1243.68-18.73 1243.68-16.21L1243.68-16.21Q1243.68-15.06 1243.38-13.92 1243.09-12.77 1242.27-12.01 1241.46-11.25 1239.82-11.25L1239.82-11.25 1225.22-11.25Q1225.71-6.86 1228.69-4.53 1231.67-2.2 1235.96-2.2L1235.96-2.2Q1238.96-2.2 1242.21-3.25L1242.21-3.25 1243.02-1.61Q1241.04-0.27 1238.5 0.34 1235.96 0.95 1233.52 0.95L1233.52 0.95Q1230.83 0.95 1228.32 0.11 1225.81-0.73 1223.82-2.42 1221.83-4.1 1220.65-6.62 1219.48-9.13 1219.48-12.5ZM1225.17-14.26L1237.82-14.26Q1237.96-14.75 1238.01-15.23 1238.06-15.72 1238.06-16.26L1238.06-16.26Q1238.06-17.87 1237.37-19.43 1236.67-21 1235.31-22.02 1233.96-23.05 1231.98-23.05L1231.98-23.05Q1229.49-23.05 1228.04-21.81 1226.59-20.58 1225.94-18.58 1225.29-16.58 1225.17-14.26L1225.17-14.26ZM1249.22-3.2L1251.17-5.91Q1252.05-5.27 1253.41-4.32 1254.76-3.37 1256.41-2.64 1258.06-1.9 1259.77-1.9L1259.77-1.9Q1261.38-1.9 1262.65-2.84 1263.92-3.78 1263.92-5.49L1263.92-5.49Q1263.92-6.84 1262.84-7.75 1261.77-8.67 1260.33-9.31 1258.89-9.96 1257.76-10.45L1257.76-10.45Q1255.86-11.3 1254.02-12.28 1252.17-13.26 1250.96-14.78 1249.76-16.31 1249.76-18.8L1249.76-18.8Q1249.76-21.31 1251.35-22.84 1252.95-24.37 1255.35-25.06 1257.74-25.76 1260.16-25.76L1260.16-25.76Q1261.67-25.76 1263.33-25.57 1264.99-25.39 1266.15-24.98 1267.31-24.56 1267.31-23.85L1267.31-23.85Q1267.31-23.68 1267.16-23.34L1267.16-23.34 1265.5-20.14Q1264.89-20.56 1263.71-21.2 1262.52-21.85 1261.05-22.38 1259.57-22.9 1258.01-22.9L1258.01-22.9Q1256.32-22.9 1255.25-22.12 1254.17-21.34 1254.17-19.9L1254.17-19.9Q1254.17-18.41 1255.25-17.41 1256.32-16.41 1258.01-15.66 1259.69-14.92 1261.57-14.21 1263.45-13.5 1265.14-12.59 1266.82-11.67 1267.9-10.33 1268.97-8.98 1268.97-6.96L1268.97-6.96Q1268.97-4.81 1268.05-3.33 1267.14-1.86 1265.64-0.95 1264.14-0.05 1262.33 0.35 1260.52 0.76 1258.76 0.76L1258.76 0.76Q1257.25 0.76 1255.57 0.43 1253.88 0.1 1252.4-0.42 1250.93-0.93 1250-1.5 1249.07-2.08 1249.07-2.59L1249.07-2.59Q1249.07-2.91 1249.22-3.2L1249.22-3.2ZM1274.17-3.2L1276.12-5.91Q1277-5.27 1278.36-4.32 1279.71-3.37 1281.36-2.64 1283.01-1.9 1284.72-1.9L1284.72-1.9Q1286.33-1.9 1287.6-2.84 1288.87-3.78 1288.87-5.49L1288.87-5.49Q1288.87-6.84 1287.79-7.75 1286.72-8.67 1285.28-9.31 1283.84-9.96 1282.71-10.45L1282.71-10.45Q1280.81-11.3 1278.97-12.28 1277.12-13.26 1275.92-14.78 1274.71-16.31 1274.71-18.8L1274.71-18.8Q1274.71-21.31 1276.31-22.84 1277.91-24.37 1280.3-25.06 1282.69-25.76 1285.11-25.76L1285.11-25.76Q1286.62-25.76 1288.28-25.57 1289.94-25.39 1291.1-24.98 1292.26-24.56 1292.26-23.85L1292.26-23.85Q1292.26-23.68 1292.11-23.34L1292.11-23.34 1290.45-20.14Q1289.84-20.56 1288.66-21.2 1287.48-21.85 1286-22.38 1284.52-22.9 1282.96-22.9L1282.96-22.9Q1281.27-22.9 1280.2-22.12 1279.13-21.34 1279.13-19.9L1279.13-19.9Q1279.13-18.41 1280.2-17.41 1281.27-16.41 1282.96-15.66 1284.64-14.92 1286.52-14.21 1288.4-13.5 1290.09-12.59 1291.77-11.67 1292.85-10.33 1293.92-8.98 1293.92-6.96L1293.92-6.96Q1293.92-4.81 1293.01-3.33 1292.09-1.86 1290.59-0.95 1289.09-0.05 1287.28 0.35 1285.47 0.76 1283.72 0.76L1283.72 0.76Q1282.2 0.76 1280.52 0.43 1278.83 0.1 1277.36-0.42 1275.88-0.93 1274.95-1.5 1274.02-2.08 1274.02-2.59L1274.02-2.59Q1274.02-2.91 1274.17-3.2L1274.17-3.2Z" opacity="1" transform="matrix(1,0,0,1,0,0)" fill="white" class="slogan-text-1" id="SvgjsPath4319"></path></svg></g></svg></g></svg></g></svg></g><g transform="matrix(1,0,0,1,49.7002287617239,0)"><svg viewBox="0 0 109.63954247655217 93.63954247655217" height="93.63954247655217" width="109.63954247655217"><g><svg xmlns="http://www.w3.org/2000/svg" xmlns:xlink="http://www.w3.org/1999/xlink" version="1.1" x="8" y="0" viewBox="1 1 66 66" style="enable-background:new 0 0 68 68;" xml:space="preserve" height="93.63954247655217" width="93.63954247655217" class="icon-icon-0" data-fill-palette-color="accent" id="SvgjsSvg4318"><g fill="black"><g fill="black"><path class="" d="M48.5 31.1C49 30.9 49.3 30.6 49.5 30.3 50.6 28.9 50.1 26.9 50 26.6 47.4 16.6 41.5 12.8 32.9 12.9 30.6 12.9 23.5 12.9 18.7 22.1 14.2 30.8 22.9 44.3 24.3 46.4V54C24.3 54.6 24.7 55 25.3 55H40.4C41 55 41.4 54.6 41.4 54V48.7C42.7 49.6 43.9 49.8 44.6 49.8 45.8 49.8 47 49.3 47.8 48.5 48.5 47.8 48.8 46.9 48.8 45.9L48.3 39.7H51.9C52.3 39.7 52.6 39.5 52.8 39.2S53 38.5 52.8 38.2zM26.5 53.1V50.9H39.6V53.1zM47.3 37.8C47 37.8 46.8 37.9 46.6 38.1S46.3 38.6 46.3 38.9L46.9 46.1C46.9 46.5 46.8 46.9 46.5 47.2 46.1 47.6 45.4 47.9 44.8 47.9 43.6 47.9 42.4 47.1 41.4 45.7 41.2 45.3 40.7 45.2 40.3 45.3S39.6 45.8 39.6 46.3V48.9H26.5V46.2C26.5 46 26.4 45.8 26.3 45.6 26.2 45.5 16.4 31.3 20.6 23.1 24.4 15.8 29.5 14.9 33 14.9 40.5 14.9 45.7 17.8 48.2 27.1 48.3 27.5 48.4 28.6 48 29 47.9 29.1 47.7 29.3 47 29.3 46.7 29.3 46.3 29.5 46.1 29.8S45.9 30.5 46.1 30.8L50.2 37.7z" fill="black"></path></g><g fill="black"><path class="" d="M67 34C67 31.3 64.9 29.1 62.3 28.8 61.6 24.8 60 21 57.6 17.6 59.4 15.4 59.2 12.4 57.3 10.6 55.4 8.7 52.4 8.5 50.3 10.3 47 8.1 43.1 6.5 39.2 5.8 38.9 3.1 36.7 1 34 1S29.1 3.1 28.8 5.8C24.8 6.5 21 8.1 17.7 10.4 15.5 8.6 12.5 8.8 10.7 10.7 8.9 12.5 8.6 15.6 10.4 17.7 8.1 21 6.5 24.8 5.7 28.8 3.1 29.1 1 31.3 1 34S3.1 38.9 5.7 39.2C6.4 43.2 8 47.1 10.3 50.4 8.6 52.4 8.7 55.5 10.6 57.4 12.4 59.2 15.4 59.5 17.6 57.7 21 60 24.8 61.6 28.8 62.4 29.1 65 31.3 67 34 67S38.9 64.9 39.1 62.3C43.1 61.6 47 60 50.3 57.6 52.5 59.4 55.4 59.1 57.3 57.3 59.2 55.4 59.3 52.4 57.6 50.3 59.9 46.9 61.5 43.1 62.2 39.1 64.9 38.9 67 36.7 67 34M50 50C48.3 51.7 48.1 54.2 49.1 56.1 46.1 58.2 42.6 59.6 39 60.3 38.4 58.2 36.4 56.6 34 56.6S29.7 58.2 29 60.3C25.4 59.6 21.9 58.2 18.9 56.1 20 54.1 19.7 51.6 18 50 16.5 48.5 14 48 11.9 49.1 9.8 46.1 8.4 42.6 7.7 39 9.8 38.3 11.4 36.4 11.4 34.1S9.9 29.8 7.7 29.2C8.4 25.4 9.9 22 12 18.9 14.2 20 16.5 19.5 18.1 18 19.6 16.5 20.1 14.1 19 12 22 9.9 25.5 8.5 29.1 7.8 29.8 9.9 31.7 11.4 34 11.4S38.3 9.9 38.9 7.8C42.5 8.5 46 9.9 49.1 12 48 14.1 48.5 16.5 50 18S53.9 20 56.1 18.9C58.2 21.9 59.6 25.4 60.3 29 58.2 29.7 56.6 31.6 56.6 33.9S58.2 38.2 60.3 38.8C59.6 42.4 58.2 45.9 56.1 48.9 53.9 47.9 51.5 48.4 50 50M65 34C65 35.8 63.6 37.2 61.8 37.2S58.6 35.8 58.6 34 60 30.8 61.8 30.8 65 32.2 65 34M55.9 12.1C57.2 13.4 57.2 15.4 55.9 16.6 54.7 17.8 52.6 17.8 51.4 16.6 50.1 15.3 50.1 13.3 51.4 12.1 52.6 10.8 54.7 10.8 55.9 12.1M34 3C35.8 3 37.2 4.4 37.2 6.2S35.8 9.4 34 9.4 30.8 8 30.8 6.2 32.2 3 34 3M12.1 12.1C13.4 10.8 15.4 10.8 16.6 12.1 17.9 13.4 17.9 15.4 16.6 16.6 15.4 17.8 13.3 17.8 12.1 16.6 10.8 15.4 10.8 13.3 12.1 12.1M3 34C3 32.2 4.4 30.8 6.2 30.8S9.4 32.2 9.4 34 8 37.2 6.2 37.2 3 35.8 3 34M12.1 55.9C10.9 54.7 10.9 52.6 12.1 51.4S15.4 50.1 16.6 51.4C17.8 52.6 17.8 54.7 16.6 55.9S13.3 57.1 12.1 55.9M34 65C32.2 65 30.8 63.6 30.8 61.8S32.2 58.6 34 58.6 37.2 60 37.2 61.8 35.8 65 34 65M55.9 55.9C54.7 57.1 52.6 57.1 51.4 55.9S50.2 52.6 51.4 51.4 54.7 50.1 55.9 51.4C57.2 52.6 57.2 54.7 55.9 55.9" fill="black"></path></g></g></svg></g></svg></g><g><rect width="9.452228761723923" height="1.8914038888147815" y="90.74813858773739" x="159.33977123827606" fill="white"></rect><rect width="9.452228761723923" height="1.8914038888147815" y="90.74813858773739" x="40.247999999999976" fill="white"></rect></g></svg></g></svg></g></svg></g><defs><mask></mask></defs></svg><rect width="320" height="360" fill="black" stroke="none" visibility="hidden"></rect></g></mask><linearGradient x1="0" x2="1" y1="0.578" y2="0.595" id="4ce5d238-ec63-4569-a425-66c52e8051c2"><stop stop-color="#6ee2f5" offset="0"></stop><stop stop-color="#6454f0" offset="1"></stop></linearGradient><rect width="320.00026" height="360" fill="url(#4ce5d238-ec63-4569-a425-66c52e8051c2)" mask="url(#e75a1537-119e-4f09-9fa4-5ce518ae516f)" data-fill-palette-color="secondary"></rect></svg><rect width="320" height="360" fill="none" stroke="none" visibility="hidden"></rect></g></svg></g></svg>